<svg xmlns="http://www.w3.org/2000/svg" fill="currentColor" viewBox="797.53 377.96 324.4 324.07"><path d="M870.67 431.13q1.52.53 3.2.13a9 9 0 0 0 3.32-1.62 9 9 0 0 0 2.45-2.74q.84-1.53.77-3.16a5.4 5.4 0 0 0-1.14-3.06 5.4 5.4 0 0 0-5.8-2.07q-1.71.4-3.33 1.6a9 9 0 0 0-2.45 2.75 6 6 0 0 0-.77 3.14 5.4 5.4 0 0 0 1.14 3.02q1.1 1.48 2.61 2M824.6 490.7q1.7.72 3.27.41 1.58-.3 2.83-1.5a9 9 0 0 0 2.04-3.07 9 9 0 0 0 .74-3.6 6 6 0 0 0-.93-3.12 5.4 5.4 0 0 0-2.53-2.07 5.35 5.35 0 0 0-6.06 1.14 9 9 0 0 0-2.05 3.07 9 9 0 0 0-.74 3.6 6 6 0 0 0 .93 3.1q.87 1.35 2.5 2.04m60.64 166.28-4.17-2.66-5.95 9.31 4.18 2.68a9 9 0 0 0 3.36 1.34q1.64.25 2.97-.42a5.6 5.6 0 0 0 2.23-2.07q.92-1.44.95-2.9.02-1.47-.88-2.8a9 9 0 0 0-2.7-2.48M845.9 631l3.72-7.35-8.08 1.57Zm119.21 48.6q-1.49-.61-3.62-.59l-4.94.08.16 11.05 4.97-.08a9 9 0 0 0 3.54-.72q1.5-.7 2.25-1.99.75-1.28.72-2.96a5.5 5.5 0 0 0-.8-2.95 5 5 0 0 0-2.28-1.84M816.63 554.99a5.5 5.5 0 0 0 3.12-1.07 5.6 5.6 0 0 0 1.88-2.6q.6-1.62.48-3.66a9 9 0 0 0-.92-3.55 6 6 0 0 0-2.2-2.4 5.4 5.4 0 0 0-3.19-.74 5.4 5.4 0 0 0-4.93 3.7 9 9 0 0 0-.5 3.65q.1 2.01.92 3.56a6 6 0 0 0 2.2 2.37q1.37.83 3.14.74m94.62-147.02a5.6 5.6 0 0 0 2.98 1.16 9 9 0 0 0 3.67-.44q1.9-.6 3.2-1.78a6 6 0 0 0 1.77-2.73 5.4 5.4 0 0 0-.08-3.25 5.3 5.3 0 0 0-4.81-3.84 9 9 0 0 0-3.66.43 9 9 0 0 0-3.22 1.78 6 6 0 0 0-1.75 2.7q-.45 1.56.08 3.23a5.5 5.5 0 0 0 1.82 2.74m192.45 109.96q.4.62.95.9a2 2 0 0 0 1.28.14 1.8 1.8 0 0 0 1.4-1.06q.4-.87.14-2.34l-1.18-6.54-4.34.78 1.17 6.54q.18.96.58 1.58m5.68 20.27-7.36-3.48.08 7.16Zm-12-17.76q.74.68 1.83.49a2.1 2.1 0 0 0 1.6-1.1q.45-.91.19-2.45l-1.3-7.17-4.63.84 1.3 7.17a4 4 0 0 0 1.01 2.22"/><path d="M959.83 380c-88.22 0-160 71.77-160 160s71.78 160 160 160c88.23 0 160-71.77 160-160s-71.77-160-160-160m152.02 160.38-15.99 8.34-.04-3.65 3.82-1.94-.11-9.6-3.86-1.81-.04-2.95 16.18 7.75Zm-1.98-24.69q.36 2 .12 3.37a4 4 0 0 1-1 2.17q-.76.8-2.07 1.04-1.23.22-2.22-.31a4.4 4.4 0 0 1-1.64-1.61q-.03.53-.14 1.04a4 4 0 0 1-1.09 1.96 4 4 0 0 1-2.1 1.03 4.2 4.2 0 0 1-2.53-.28 4.4 4.4 0 0 1-1.93-1.75 9 9 0 0 1-1.12-3.2l-1.39-7.69-.61-3.41 15.83-2.85Zm-6.47-25.47-12.36 13.14-1.24-3.44 2.97-3.08-3.26-9.02-4.24-.45-1-2.77 17.82 2Zm-23.4-19.75a8 8 0 0 0 .84 2.68q.9 1.71 2.07 2.13t2.55-.3l9.28-4.87 1.6 3.05-9.82 5.16q-1.55.81-2.9.69a4.5 4.5 0 0 1-2.54-1.17 10 10 0 0 1-2.2-2.96 12 12 0 0 1-1.13-3.22Zm-6.98-32.03 2.2 2.69-10.5 8.63 7.46 9.1-1.92 1.57-9.67-11.78Zm-5.8-6.22-1.65 1.85-9.16-8.13-2.76 3.1 6.95 6.19-1.63 1.83-6.96-6.18-2.99 3.37 9.3 8.26-1.66 1.85-11.88-10.57 10.69-12.02Zm-34.34-25.62 7.24 4.5q2.63 1.65 4.04 3.67a7.6 7.6 0 0 1 1.48 4.17 7.5 7.5 0 0 1-1.23 4.22 7.5 7.5 0 0 1-7.82 3.51q-2.5-.36-5.06-1.96l-4.21-2.62-2.95-1.84Zm-38.53-2.45q1 1.35 2.67 2.53 1.66 1.18 4.06 1.93 1.53.47 2.76.56t2-.23.98-1q.27-.84-.12-1.46-.38-.61-1.52-1.24-1.13-.6-3.43-1.57a21 21 0 0 1-4.1-2.11 5 5 0 0 1-1.85-2.1 3.8 3.8 0 0 1-.06-2.44q.45-1.47 1.75-2.24a6.6 6.6 0 0 1 3.28-.8q1.97-.05 4.43.73 2.46.76 4.3 1.88 1.86 1.13 2.95 2.42l-2.07 1.7a12.6 12.6 0 0 0-5.98-3.77q-1.44-.45-2.61-.52a4.4 4.4 0 0 0-1.9.24q-.74.3-.95.96-.21.69.15 1.26.37.55 1.5 1.2 1.15.62 3.4 1.57 2.64 1.05 4.08 2.1a5.3 5.3 0 0 1 1.9 2.17q.48 1.13.02 2.6a4 4 0 0 1-1.8 2.34 6 6 0 0 1-3.3.78q-1.98 0-4.49-.79a22 22 0 0 1-5.06-2.21 13 13 0 0 1-3.2-2.72Zm-15.6-14.81 3.82.52 5.88 17.05-3.62-.5-1.35-4.06-9.5-1.3-2.38 3.54-2.91-.4Zm-16.15-5.23 3.84.05-3 2.9-2.85-.04Zm-2.32 4.07 3.47.04-.21 16.09-3.47-.05ZM1089.38 540c0 71.43-58.12 129.55-129.55 129.55S830.3 611.43 830.3 540s58.11-129.55 129.54-129.55 129.55 58.12 129.55 129.55M933.4 394.14a8.6 8.6 0 0 1 3.23-3.5q2.17-1.36 5.18-1.73 3.47-.42 6.03.55a7.8 7.8 0 0 1 3.96 3.22l-3.1 1.12a6 6 0 0 0-2.74-2.06 8 8 0 0 0-3.8-.32 8 8 0 0 0-3.35 1.13 5.7 5.7 0 0 0-2.1 2.33 5.7 5.7 0 0 0-.48 3.2 6 6 0 0 0 1.2 3.06 5 5 0 0 0 2.52 1.72 8 8 0 0 0 3.49.28q1.66-.2 2.96-.82a6 6 0 0 0 2.11-1.61q.81-1 1.05-2.27v-.02l-5.91.7-.28-2.3 9.24-1.1 1 8.34-1.64.2-1.22-2.95q-.33.64-.8 1.2a8 8 0 0 1-2.68 2.07q-1.65.81-3.85 1.08-2.93.36-5.24-.37a7.5 7.5 0 0 1-5.52-6.52 8 8 0 0 1 .75-4.63m-27.46 7.63a9 9 0 0 1 2.73-4.02 13.5 13.5 0 0 1 4.9-2.7q2.96-.94 5.57-.7t4.47 1.64a7.4 7.4 0 0 1 2.6 3.76q.77 2.4.02 4.65a9 9 0 0 1-2.74 4.03 13.5 13.5 0 0 1-4.89 2.68q-2.97.94-5.57.72a8.4 8.4 0 0 1-4.44-1.63 7.5 7.5 0 0 1-2.62-3.81 7.4 7.4 0 0 1-.03-4.62m-17.9 4.45 6.16 12.13 10.48-5.33 1.13 2.21-13.58 6.9-7.3-14.33Zm-23.15 16.09a14 14 0 0 1 3.76-4.15 14 14 0 0 1 5.03-2.48 8.6 8.6 0 0 1 4.75.08 7.4 7.4 0 0 1 3.7 2.7q1.5 2 1.54 4.4a9 9 0 0 1-1.28 4.7 13.5 13.5 0 0 1-3.74 4.13 14 14 0 0 1-5.03 2.5 8.4 8.4 0 0 1-4.73-.1 7.5 7.5 0 0 1-3.72-2.74 7.4 7.4 0 0 1-1.54-4.36 9 9 0 0 1 1.26-4.68m-19.82 19.25a13 13 0 0 1 2.76-4.59 13 13 0 0 1 5.14-3.64 7.5 7.5 0 0 1 5.32.1l-1.66 2.87a5.3 5.3 0 0 0-3.58-.02 8 8 0 0 0-3.23 2.26q-1.33 1.46-1.84 3.08a5.4 5.4 0 0 0 1.58 5.95q1.35 1.23 2.92 1.48 1.58.24 3.14-.42 1.55-.66 2.9-2.14 1.5-1.65 1.99-3.43a5 5 0 0 0-.34-3.56l2.76-1.9q1.15 2.6.44 5.34a13 13 0 0 1-3.14 5.4 14 14 0 0 1-4.32 3.26q-2.3 1.05-4.55.75a7.5 7.5 0 0 1-4.13-2.02 8 8 0 0 1-2.43-4.02 8.6 8.6 0 0 1 .27-4.75m-8.11 8.9 2.08 1.36-6.65 10.28 3.49 2.26 5.05-7.82 2.07 1.34-5.06 7.81 3.78 2.45 6.76-10.44 2.08 1.35-8.64 13.35-13.5-8.74Zm-17.38 30.47q1.2-2.86 3.08-4.68a8.6 8.6 0 0 1 4.16-2.33 7.4 7.4 0 0 1 4.55.47 7.4 7.4 0 0 1 3.54 3.02 9 9 0 0 1 1.27 4.7q.03 2.66-1.15 5.45a14 14 0 0 1-3.08 4.7 8.4 8.4 0 0 1-4.13 2.3 7.5 7.5 0 0 1-4.6-.49 7.4 7.4 0 0 1-3.52-2.99 9 9 0 0 1-1.28-4.68q-.04-2.66 1.16-5.47M813.63 499l15.53 4.19-.9 3.34-15.54-4.18Zm-4.64 20.53q.48-3.65 2.15-5.93a7.5 7.5 0 0 1 4.41-2.96l.28 3.3a5.3 5.3 0 0 0-2.95 2.03 8 8 0 0 0-1.36 3.7q-.26 1.96.26 3.59a5.5 5.5 0 0 0 4.7 3.99q1.8.23 3.23-.47a5.7 5.7 0 0 0 2.34-2.13q.9-1.44 1.16-3.42.3-2.2-.34-3.95a5 5 0 0 0-2.3-2.73l1.18-3.13a8 8 0 0 1 3.4 4.12q.99 2.65.51 6.23-.39 2.98-1.68 5.15a7.5 7.5 0 0 1-7.85 3.92 8 8 0 0 1-4.28-1.92 8.6 8.6 0 0 1-2.5-4.05q-.74-2.48-.36-5.34m.22 34.3a13.5 13.5 0 0 1-1.37-5.43q-.17-3.1.71-5.56a8.6 8.6 0 0 1 2.7-3.92 7.4 7.4 0 0 1 4.3-1.58q2.5-.14 4.51 1.15a9 9 0 0 1 3.2 3.67 13.5 13.5 0 0 1 1.38 5.4q.18 3.12-.7 5.57a8.4 8.4 0 0 1-2.7 3.9 7.5 7.5 0 0 1-4.34 1.57 7.4 7.4 0 0 1-4.48-1.13 9 9 0 0 1-3.2-3.64m16.6 17.93a12 12 0 0 0-.93-2.66 5 5 0 0 0-1.22-1.6q-.67-.5-1.36-.34-.87.21-1.2.86a4 4 0 0 0-.29 1.93q.05 1.29.4 3.76.42 2.85.28 4.6a5 5 0 0 1-.86 2.67 3.8 3.8 0 0 1-2.05 1.3q-1.5.35-2.83-.37a6.6 6.6 0 0 1-2.37-2.4 14 14 0 0 1-1.63-4.18q-.6-2.5-.58-4.67 0-2.17.58-3.77l2.5.92a12.5 12.5 0 0 0-.18 7.05q.35 1.49.9 2.52.54 1.05 1.17 1.52t1.3.31q.72-.17 1.02-.77t.25-1.9a37 37 0 0 0-.38-3.73q-.43-2.8-.28-4.58.15-1.77.9-2.75.73-.98 2.23-1.33a4 4 0 0 1 2.92.34q1.34.72 2.36 2.44a16 16 0 0 1 1.62 4.27q.74 3.08.68 5.48t-.7 4.14l-2.65-1q.65-1.55.81-3.59.16-2.03-.41-4.47m6.15 32.6a2.8 2.8 0 0 1-2.43 1.14q-.7-.04-1.3-.46-.61-.4-.92-1.05-.33-.7-.25-1.4t.48-1.3q.4-.58 1.03-.88.67-.32 1.4-.26.71.05 1.3.44t.93 1.08q.3.65.24 1.38t-.48 1.3m12.93 35.95-2.22-2.95 1.95-3.86-5.82-7.75-4.24.83-1.78-2.38 17.8-3.37 2.35 3.12Zm15.5 15.2.82-17.59-.62.8-8.46 9.1-2.23-2.08 11.08-11.9 3.14 2.93-.75 16.74.63-.76 8.03-8.62 2.2 2.06-11.07 11.9Zm30.58 11.59a7.5 7.5 0 0 1-7.95 3.46 13 13 0 0 1-5.09-2.04l-4.22-2.7-2.96-1.88 8.75-13.7 7.26 4.63a14 14 0 0 1 4.05 3.75 7.7 7.7 0 0 1 1.44 4.22 7.5 7.5 0 0 1-1.28 4.25m23.13 4.24-11.4-4.83-1.64 3.87 8.66 3.67-.97 2.29-8.66-3.68-1.77 4.2 11.56 4.9-.98 2.3-14.8-6.27 6.36-14.96 14.62 6.2Zm8.2 5.53q.42.54 1.6 1.1 1.2.57 3.53 1.38 2.72.9 4.24 1.85a5.4 5.4 0 0 1 2.07 2.07q.54 1.11.17 2.63a4 4 0 0 1-1.65 2.46q-1.27.9-3.28 1-2.01.13-4.59-.5a22 22 0 0 1-5.24-1.91 13 13 0 0 1-3.4-2.54l2.12-1.92a12 12 0 0 0 2.85 2.38q1.75 1.08 4.21 1.68 1.59.39 2.82.4 1.25 0 2-.37.77-.36.93-1.07.21-.87-.21-1.47-.43-.6-1.61-1.14-1.19-.56-3.56-1.37a22 22 0 0 1-4.27-1.87 5 5 0 0 1-2-2 3.8 3.8 0 0 1-.23-2.45q.38-1.5 1.63-2.37a6.6 6.6 0 0 1 3.25-1.03q1.99-.15 4.52.46 2.52.6 4.46 1.62 1.95 1.02 3.12 2.26l-1.97 1.83a12.7 12.7 0 0 0-6.27-3.41 11 11 0 0 0-2.67-.35q-1.2 0-1.9.36-.73.35-.9 1.02-.16.72.24 1.27m48.35 11.77a8 8 0 0 1-3.53 2.93q-2.31 1.05-5.37 1.1l-5.02.08-3.5.05-.25-16.25 8.62-.13q3.13-.04 5.43.9a7.7 7.7 0 0 1 3.54 2.73 7.5 7.5 0 0 1 1.27 4.25 7.5 7.5 0 0 1-1.19 4.34m9.73 2.84-2.98-15.98 15.62-2.9.46 2.46-12.17 2.26.77 4.13 9.24-1.72.46 2.45-9.25 1.72.84 4.47 12.35-2.3.45 2.47Zm23.58-5.17-5.39-15.33 3.3-1.17 4.57 12.97 11.21-3.94.83 2.37Zm43.4-23.42a6.3 6.3 0 0 1-1.54 3.07 16 16 0 0 1-3.54 2.96 22 22 0 0 1-5 2.47q-2.31.75-4.19.7l.08-2.86q1.7.1 3.69-.41 1.99-.52 4.13-1.88a12 12 0 0 0 2.23-1.77q.86-.9 1.12-1.7t-.13-1.4q-.49-.76-1.2-.87a4 4 0 0 0-1.95.37q-1.2.48-3.45 1.63a22 22 0 0 1-4.3 1.8q-1.71.44-2.84.06a3.8 3.8 0 0 1-1.91-1.53 4 4 0 0 1-.6-2.82q.26-1.5 1.51-3.06a14 14 0 0 1 3.45-2.95 20 20 0 0 1 4.27-2.1 12 12 0 0 1 3.78-.7l-.04 2.7a12.7 12.7 0 0 0-6.8 2.17q-1.29.82-2.1 1.69-.82.86-1.06 1.62t.13 1.35q.4.63 1.08.7.66.09 1.9-.38a37 37 0 0 0 3.43-1.6q2.53-1.35 4.27-1.78a5.4 5.4 0 0 1 2.93-.06 3.8 3.8 0 0 1 2.01 1.69q.88 1.36.64 2.9m17.93-13.38a10 10 0 0 1-2.78 3.87 11 11 0 0 1-4.09 2.51 6.7 6.7 0 0 1-4.04.08 8.4 8.4 0 0 1-3.74-2.52l-5.87-6.43 2.61-2.38 5.71 6.3q1.22 1.33 2.57 1.8 1.36.47 2.68.1a6 6 0 0 0 2.57-1.49 6 6 0 0 0 1.67-2.4q.5-1.33.14-2.74a6.3 6.3 0 0 0-1.54-2.7l-5.7-6.25 2.29-2.08 5.7 6.25a8.6 8.6 0 0 1 2.16 3.96 7 7 0 0 1-.34 4.12m17.96-19.91-7.4-1.77-4.28 5.54 5.5 4.24-2.14 2.78-12.87-9.92 6.98-9.07q1.92-2.48 3.82-3.05a3.9 3.9 0 0 1 3.67.79 4 4 0 0 1 1.52 2.2q.33 1.3-.13 2.85-.12.38-.28.77l7.85 1.73Zm10.07-28.14q-.3.64-.9 1.06-.6.41-1.3.46a2.8 2.8 0 0 1-2.43-1.12 2.6 2.6 0 0 1-.26-2.67q.32-.7.91-1.08.6-.4 1.3-.46.7-.07 1.34.22.66.3 1.09.9.4.59.5 1.3.08.69-.25 1.39m12.83-20.14-15.53-4.2.9-3.35 15.53 4.2Zm3.16 3.63-2.12-3.6.7-2.76 2.37 2.63Zm1.33-25.56-13.45-2.01-1.74 11.63-2.46-.36 2.26-15.07 15.9 2.38Z"/><path d="m1100.35 488.97-8.1-.86 2.44 6.74Zm-25.81 133.01a2 2 0 0 0-1.85-.35q-.98.3-1.97 1.58l-4.59 5.95 3.6 2.78 4.6-5.96q.95-1.23 1.02-2.27a1.9 1.9 0 0 0-.81-1.73m-94.5-229.99-4.53 6.76 7.1.98Zm56.15 31.81q1.62.22 2.93-.45a5.5 5.5 0 0 0 2.19-2.08q.9-1.44.9-2.88 0-1.45-.9-2.76a9 9 0 0 0-2.7-2.42l-4.14-2.6-5.79 9.3 4.17 2.6a9 9 0 0 0 3.34 1.29m-87.03 39.12c.01.2.1.36.12.55v.7c-.01.66.1 1.29.1 1.94 0 .29.04.6 0 .88-.03.25-.26.61-.06.88s2.37.21 2.65.2c.48 0 .98.06 1.46.01.26-.02.47-.11.74-.11h1.62a12 12 0 0 1 1.31.07l.41.08h.38l.24-.02q.08 0 .16-.03h.69l.38-.02.24-.02h.8l.3-.02h.23q.22-.04.44-.02h.14l.06-.02h.07q.03 0 .04-.04v-.03q0-.05.03-.08l.05-.2q0-.1.03-.19.07-.12.09-.25c.03-.26-.03-.52-.03-.77 0-.62.02-1.11.17-1.69.07-.3 0-.55.04-.84.03-.28.16-.37.22-.62.07-.27.04-.55.01-.82l-.02-.4.01-.27v-.3q0-.15.06-.27 0-.06.03-.12.04-.1.1-.18.04-.1.06-.23l.16-.47c.17-.48.45-.85.7-1.32.18-.35.43-.84.54-1.22.14-.43.18-.9.6-1.2.35-.24.68-.44 1-.77.38-.38.75-.7 1.16-1.05.79-.68 1.3-1.64 2.15-2.27.33-.25.92-.42 1.32-.58.24-.1.5-.13.75-.25.08-.05.16-.2.24-.23.18-.08.35 0 .54-.08s.3-.3.57-.37c.25-.06.5-.06.74-.12a16 16 0 0 1 1.57-.32c.5-.07.99-.15 1.42-.36q.36-.18.74-.32c.1-.03.13-.14.25-.17.17-.03.36.03.54 0 .33-.07.48-.19.84-.2h1.57c.35-.01.62-.16.95-.21.5-.07.98-.28 1.41-.37.28-.06.51-.08.8 0 .33.09.61.11.95.18l.74.2c.26.05.37.16.61.22.26.06.6-.05.86-.02.29.03.45.15.72.22.94.26 2.07.4 2.85.99.38.29.75.7 1.1 1.06.33.33.68.57 1.06.84a6 6 0 0 1 1.79 1.78c.43.72.64 1.5 1.25 2.1.3.3.7.6.95.95.35.48.43 1.18.57 1.74q.37 1.62 1.06 3.16c.11.25.18.34.21.62.02.13-.04.3-.01.43.04.2.18.21.23.4.06.25 0 .6-.01.85 0 .38.12.6.19.95.13.69.02 1.5.02 2.2v1.15c0 .14-.03.3 0 .43q0 .04.02.07c.14.21.37.16.59.16h1.28q.14.01.27-.02l.16-.08q.12-.03.25-.02a12 12 0 0 0 1-.06l.57-.04 1.12-.11q.2-.01.38-.07c.26-.08.52-.1.79-.16l.36-.07q.25-.02.5-.08l.35-.04q.14-.04.3-.04.12 0 .23-.03l.24-.07.41-.07.38-.05c.07-.03.1-.04.18-.04l1-.03h.3l.4-.03h.56c.13 0 .33 0 .43-.1.19-.18.03-1.06.03-1.33q.02-.37 0-.73c0-.32-.16-.54-.22-.85-.08-.45 0-1 .01-1.47 0-.3.03-1.03-.25-1.22-.34-.24-.99.04-1.27.13-.46.14-1.57.18-2.05.27-.2.04-.27.17-.54.2-.22.02-.4-.02-.63.04l-.3.08c-.36.1-.84.25-1.21.13q-.21-.09-.27-.32-.05-.16-.07-.35c-.02-.12-.08-.23-.09-.35q0-.21-.1-.41-.06-.19-.15-.36l-.14-.24-.12-.35-.07-.21-.05-.1-.03-.13q-.08-.22-.2-.42l-.09-.2-.08-.18-.18-.71-.02-.23c.06-.28.36-.34.54-.53l.42-.5q.47-.48.99-.92c.76-.65 1.72-1.07 2.44-1.74.14-.14.22-.27.38-.4.15-.1.34-.08.46-.27q.03-.08.1-.1.09 0 .13-.07v-.24c0-.16-.08-.3-.12-.44l-.15-.45c-.02-.08-.1-.14-.12-.2l-.02-.08-.04-.08v-.1q0-.03-.04-.07l-.12-.21c-.17-.31-.26-.65-.4-.98-.3-.72-.77-1.42-1.23-2.04-.18-.25-.47-.45-.68-.68q-.23-.23-.43-.47c-.1-.14-.26-.48-.4-.5-.24-.04-.79.68-.9.86q-.44.68-1 1.27c-.23.22-.48.4-.68.62-.23.24-.4.59-.63.8-.38.35-1 .45-1.43.68-.6.31-.82.22-1.27-.3q-.44-.51-.83-1.05l-.02-.03q-.44-.61-.84-1.25-.2-.32-.43-.63-.07-.08-.16-.13c-.09-.05-.17-.09-.14-.2l.03-.06.19-.35.26-.54c.11-.24.32-.34.46-.55l.1-.24.3-.38c.14-.2.17-.41.28-.62q.29-.64.6-1.24.31-.51.56-1.05c.09-.21.3-.46.36-.68.06-.2.05-.53.02-.74-.03-.28-.3-.4-.52-.58-.48-.39-.9-.87-1.4-1.23l-.77-.55c-.35-.25-.77-.37-1.13-.6-.17-.1-.28-.22-.46-.3l-.3-.17-.6-.5c-.1-.06-.07-.14-.2-.09-.1.05-.1.2-.13.29-.14.31-.35.58-.48.89-.17.38-.45.71-.64 1.09q-.28.55-.62 1.06c-.37.58-.7 1.14-1.18 1.66-.4.43-.7.9-1.02 1.38l-.18.2c-.04.05-.12.22-.15.24-.22.18-.44-.06-.67-.13q-.67-.2-1.32-.44c-.23-.08-.5-.21-.74-.25-.26-.05-.56.06-.82 0-.1-.03-.14-.1-.27-.1-.18-.03-.38 0-.56 0-.23 0-.67.1-.83-.11-.13-.18-.02-.5-.04-.72-.02-.14-.1-.24-.12-.38-.03-.14.01-.3 0-.44-.01-.37-.14-.74-.22-1.1q-.11-.55-.1-1.14c0-.35-.08-.72-.14-1.07l-.18-1.25c-.07-.39.05-.8-.02-1.2-.03-.13-.09-.24-.1-.39-.02-.12-.03-.34-.11-.44-.23-.31-1.05-.28-1.43-.19-.5.12-1 .29-1.47.42-.1.04-.15.1-.28.1l-.33.06q-.16.04-.34.05c-.14.02-.2.09-.32.12s-.27-.01-.39 0c-.16 0-.23.04-.38.08q-.48.13-.99.13c-.12 0-.25-.04-.33.06-.04.06 0 .3 0 .38v5.05c0 .17-.09.28-.11.44-.05.27.04.55 0 .82-.03.18-.22.25-.39.3-.43.12-.89.15-1.32.27-.1.03-.22.1-.31.12l-.52.1-.25.04c-.1.04-.2.13-.31.18l-.24.07q-.15.07-.3.18c-.12.06-.32.15-.45.18-.13.04-.32 0-.46 0-.18 0-.23.04-.38.12s-.32.03-.46.11c-.13.07-.22.2-.37.25-.33.1-.39-.14-.5-.38q-.22-.44-.49-.86c-.25-.41-.44-.86-.68-1.28q-.22-.38-.41-.75a7 7 0 0 0-.48-.82q-.28-.46-.5-.94c-.17-.3-.05-.62-.49-.33l-1 .67c-.64.44-1.35.84-2.04 1.18-.64.32-1.29.76-1.97.93-.25.07-.55.05-.61.33-.07.33.4 1 .58 1.26.29.42.6.83.83 1.3.19.4.26.81.38 1.24.14.5.2 1.12.41 1.58.1.22.11.4.11.66 0 .11-.03.26.02.36s.17.1.19.22c-.23.07-.33-.01-.51.16-.1.1-.26.22-.33.33-.14.18-.17.26-.36.38l-.63.39q-.38.25-.71.6c-.2.2-.57.7-.85.7-.13 0-.43-.19-.55-.26-.2-.1-.32-.28-.49-.41-.08-.07-.2-.08-.28-.14-.13-.08-.2-.2-.33-.28q-.32-.2-.66-.38c-.6-.34-1.16-.77-1.7-1.18-.16-.11-.36-.18-.5-.32-.16-.18-.16-.36-.4-.48-.22-.1-.25-.04-.41.15-.2.25-.44.47-.63.73-.27.35-.44.77-.74 1.09-.36.37-.74.68-1.06 1.11-.31.43-.55.88-.84 1.32-.06.09-.29.3-.29.38 0 .16.31.41.43.55.56.68 1.25 1.25 1.93 1.82.48.4 1 .8 1.44 1.25.2.19.34.35.58.5l.57.33q.26.14.53.33c.14.1.35.15.43.3.16.35-.26.84-.33 1.14l-.02.31c-.02.09-.07.13-.09.25q-.03.3-.16.56-.08.12-.12.25v.16l-.05.18q0 .06.04.11.04.2.02.39l-.02.1v.11l-.01.1v.1l-.28.01h-.1l-.06.02-.31.02h-.27l-.18.01h-2.05q-.25 0-.5.06-.15.04-.32.06h-.22q-.4.02-.81 0l-.16-.01c-.1 0-1.82 0-1.91-.02h-.33q-.07.01-.13.05-.05 0-.1.04c-.01.02.02.11.02.14zm-16.82 75.7q-.16 1.78-.08 3.63l.12-3.95z"/><path d="M980.44 461.7c-.16.48-.22.98-.3 1.48-.13.77-.46 1.48-.67 2.23-.49 1.73-1.05 3.47-1.43 5.23q-.16.62-.24 1.25c-.05.5.15.7.4 1.11.29.47.66.68 1.05 1.05.38.36.76.8 1.21 1.06.46.26 1.03.5 1.55.53.5.02.97-.21 1.38-.48.51-.33.89-.8.99-1.37.06-.34.13-.62.13-.99 0-.55-.12-1-.33-1.52-.3-.75-.4-1.57-.62-2.35-.1-.37-.3-.7-.42-1.06-.15-.42-.2-.88-.3-1.31q-.34-1.26-.7-2.5-.12-.47-.26-.93c-.06-.17-.2-.33-.24-.52-.09-.37-.16-.64-.15-1.04 0-.23.02-.3-.13-.43-.1-.1-.4-.27-.66-.36.05.18-.08.24-.14.38s-.07.38-.12.54m-65.08 55.84c-.15.48-.21.97-.3 1.47-.13.77-.45 1.49-.67 2.24-.49 1.73-1.05 3.46-1.43 5.22-.09.4-.2.84-.24 1.25-.05.5.15.7.4 1.11.29.47.67.68 1.06 1.05.37.36.75.81 1.2 1.06.47.26 1.03.5 1.55.53.5.02.97-.21 1.39-.48.5-.33.88-.8.98-1.36.06-.35.13-.63.13-1 0-.55-.12-1-.33-1.51-.3-.76-.4-1.58-.62-2.36-.1-.37-.3-.7-.42-1.05-.15-.42-.19-.88-.3-1.32q-.33-1.26-.7-2.5-.12-.47-.26-.93c-.06-.17-.19-.33-.23-.51-.1-.37-.17-.65-.16-1.05 0-.23.02-.3-.13-.43-.1-.1-.4-.27-.66-.36.05.18-.08.24-.14.39-.05.15-.07.37-.12.53m68.14-4.7c.09.06.28.1.39.15.21.08.56.13.75.26.1.07.14.15.25.21l.34.15q.3.16.62.3c.25.1.44.28.7.35.43.11.33-.15.45-.45.17-.4.3-.89.53-1.27.27-.45.6-.86.8-1.34.14-.32.71-.88.13-.95-.35-.04-.72-.04-1.06-.13-.37-.1-.71-.26-1.08-.34-.26-.05-.43-.12-.71-.12-.16 0-.36.05-.52.02q-.04 0-.07-.03c-.03-.05-.03-.15-.04-.2q-.04-.12-.03-.22a1 1 0 0 1 .2-.23c.09-.06.16-.08.24-.15l.2-.13.13-.08q.06-.04.1-.09l.42-.3.24-.2q.06-.03.12-.1l.09-.1.23-.23.21-.25q.14-.12.27-.26.12-.08.23-.19.15-.12.27-.28c.1-.14.2-.31.34-.4s.27-.3.2-.47c-.03-.05-.15-.11-.2-.16l-.05-.19c-.08-.13-.22-.25-.3-.38l-.53-.94q-.31-.5-.65-.96c-.26-.36-.49 0-.75.21-.54.44-1.2.91-1.54 1.52q-.14.3-.32.56c-.07.08-.12.22-.18.3-.14.16-.52.3-.71.35-.49.14-.45-.12-.45-.51 0-.56.04-1.05.11-1.6.08-.58-.1-1.21 0-1.78.07-.33.18-.6.13-.95-.04-.33-.33-.36-.65-.35h-1.11c-.53.01-1.04.21-1.56.24-.15 0-.34-.04-.48-.01s-.18.14-.34.14c.02.22.16.47.23.68.16.52.1 1.03.11 1.56 0 .35.08.68.11 1.03.02.2-.04.45 0 .65l.1.37c-.03-.04-.07.08-.1.23l.02.2c-.03.13 0 .28-.15.34-.2.08-.36-.17-.48-.3-.36-.4-.73-.86-1.15-1.2-.28-.2-.6-.4-.84-.66-.23-.23-.4-.52-.62-.76-.18-.2-.45-.47-.7-.34s-.37.48-.52.68c-.11.17-.25.24-.38.37-.33.33-.49.91-.77 1.29-.1.13-.7.63-.67.8.03.15.59.53.7.62.14.13.33.16.48.26s.2.2.35.3c.28.18.48.36.8.48a5 5 0 0 1 1.48.83c.18.15.3.39.55.4-.06.23-.4.34-.57.48q-.56.44-1.07.93c-.26.24-.59.38-.86.6-.24.2-.38.47-.56.7-.12.15-.4.32-.46.5-.12.32 0 .49.18.7.17.22.23.5.35.72q.3.48.63.95c.22.33.56.74.62 1.15.2.05.7-.66.81-.76q.28-.32.59-.6.35-.28.7-.59c.14-.12.34-.2.47-.32.1-.09.13-.18.22-.27.3-.3.63-.52.96-.8.08-.07.23-.36.38-.34.2.03.12.34.12.49v2.6c0 .63.1 1.16.2 1.76.08.39-.06.83.05 1.2.19-.02.32-.1.52-.1h1.01c.18 0 .24.05.38.09q.22.04.45.03c.2 0 .29.04.47.09.46.12.36-.23.36-.57v-3.49c0-.24-.1-.43-.13-.66-.02-.27-.05-.69.03-.94.13.01.14.13.24.2m22.06 14.04.16-.06c.3-.06.6-.08.91-.16.52-.14.97-.4 1.46-.64q.39-.2.76-.46c.22-.14.44-.21.63-.4l.5-.5q.19-.15.37-.32c.2-.2.28-.54.36-.8l.42-1.17c.04-.17.02-.3.05-.48.03-.23.2-.5.13-.77-.72-.12-1.41-.37-2.1-.62-.4-.15-.84-.08-1.27-.15a5 5 0 0 0-1.25-.01c-.42.04-.84.14-1.27.13a8 8 0 0 0-1.92.3c-.34.08-.67.03-1.01.06-.18 0-.35.08-.52.14q-.2.05-.39.14l-.16.15c-.13.08-.37.21-.5.09-.08-.07-.13-.22-.18-.3a3.4 3.4 0 0 0-1.52-1.24c-.34-.15-.75-.16-1.12-.26a4 4 0 0 1-.64-.23c-.39-.17-.78-.2-1.18-.2h-.29l-.15.07c-.05.01-.18-.03-.23.01-.03.03-.02.18-.02.22-.05.23-.05.47-.11.7-.07.26-.15.54-.09.81.02.1.06.15.07.26q0 .14.03.28c.06.22.17.42.24.64.08.27.15.62.16.9.01.32.07.62.07.94v.97c0 .14.03.32-.02.46l-.17.46-.11.34c-.1.38-.29.75-.42 1.12q-.14.45-.22.92c-.07.33-.23.63-.27.96-.1.76-.35 1.48-.49 2.24l-.2 1.02c-.05.26-.02.54-.02.8v.57c0 .17.06.2.2.25l.14.01.06.08.15.07c.17.1.24.13.45.12.37 0 .82-.08 1.17.08.12.05.28.07.32.2l.24.01c.13-.05.28-.25.36-.36.15-.18.34-.34.48-.52.11-.15.15-.33.25-.48l.28-.33q.2-.27.38-.57c.14-.22.24-.46.39-.68.17-.26.37-.52.5-.8q.1-.25.17-.5c.03-.08.1-.37.2-.38.01.14.16.3.23.42l.44.8c.15.3.37.6.56.9l.42.66c.2.28.34.57.55.84q.35.43.66.88c.33.46.78.84 1.3 1.06l.56.25c.1.05.19.16.33.08.08-.05.15-.15.23-.2.16-.11.38-.22.5-.36.23-.25.44-.58.62-.85q.26-.34.5-.7c.2-.3.43-.57.6-.88.16-.28.32-.5.5-.75.2-.27.31-.54.43-.84.12-.32-.06-.52-.21-.81a9 9 0 0 0-.68-1.15q-.2-.25-.4-.46c-.16-.15-.28-.36-.44-.52-.3-.3-.5-.67-.76-1.02-.05-.07-.33-.35-.31-.42.03-.11.07-.03.15-.06M868.95 516.3c.33.33.72.58 1.08.88l1.09.93c.27.22.52.52.81.72.35.24.49-.1.71-.35.28-.3.6-.57.86-.88.47-.56 1.01-1.07 1.51-1.6l.3-.32c.08-.06.15-.16.23-.21l.15-.07q.14-.1.27-.22l.24-.2c.13-.14.2-.31.37-.42l.88-.51c.27-.15.49-.38.75-.55q.2-.15.41-.27.23-.12.43-.25c.34-.21.62-.54.93-.79.19-.16.4-.24.61-.33q.6-.25 1.16-.53.28-.16.57-.23c.1-.01.18-.06.27-.07h.15q.06 0 .1-.03l.15-.02.2-.07q.21-.05.41-.12.32-.13.66-.21l.99-.28.3-.05h.16q.24-.06.47-.14a6 6 0 0 1 1.04-.2c.17 0 .34-.05.51-.06q.16.02.28 0l.11-.08.15-.09q.1-.06.1-.17l.03-.19q0-.3-.05-.58l-.06-.5q-.15-1.33-.24-2.68c-.01-.3.02-.67-.04-.97-.1-.5-.16-.45-.8-.47q-.69-.01-1.37 0a6 6 0 0 0-1.73.32l-1 .29c-.4.14-.8.32-1.2.46-.9.3-1.71.84-2.63 1.05-.8.19-1.66.31-2.38.75-.4.24-.83.47-1.2.77-.33.27-.63.58-.96.85q-1 .8-1.9 1.69c-.5.48-1.07.9-1.51 1.43-.45.52-1 .97-1.35 1.57l-.4.65c-.16.25-.4.47-.53.72-.15.3-.45.6-.55.93-.12.38.23.49.46.7m-.85 7.62-.18-.04c-.24-.09-.43-.25-.65-.35-.5-.24-1.02-.41-1.52-.62-.38-.16-.68-.5-1.11-.51-.4-.02-.66.43-.87.72l-.12.25-.05.15q-.05.05-.09.12l-.01.12c-.06.2-.17.4-.23.6l-.13.35c-.03.14-.13.28-.2.4q-.14.3-.25.6l-.17.46-.2.33q-.17.32-.3.69-.04.12-.06.25a1 1 0 0 1-.09.35q-.1.25-.12.52c-.01.2-.08.4-.12.6l-.05.28-.07.17v.17c0 .18-.08.39-.13.56q-.08.19-.08.4v.2l-.03.13v.1q-.01.15-.07.3a15 15 0 0 0-.33 1.75l-.31 2.12q-.08.38-.14.8c-.03.27 0 .56 0 .85 0 .59-.03 1.17.06 1.76q.12.93.1 1.85v1.22c.03.4.15.79.2 1.18.1.62.17 1.26.3 1.87.1.5.13 1 .23 1.5.04.2 0 .39.01.6.01.15.07.31.09.47.04.3.12.53.23.8.13.34.2.7.35 1.02.18.38.27.76.39 1.17.14.47.39.94.56 1.41a27 27 0 0 0 3.63 6.42q.25.39.52.76l.3.34c.13.04.26-.12.25-.24q-.02-.13.02-.24l.25-.36q.19-.23.32-.49l.14-.3.14-.28.17-.27.17-.26q.08-.16.2-.3l.25-.4.23-.36.07-.16.06-.14.29-.5.05-.12.08-.11.15-.2q.05-.1.05-.2c0-.1.08-.18.1-.27v-.08l.02-.07q.02-.08-.02-.15l-.11-.13-.04-.06-.06-.03-.07-.07-.09-.07-.03-.08-.15-.23-.3-.49-.54-1-.2-.36c-.2-.37-.48-.69-.7-1.04l-.63-1.05a4 4 0 0 1-.4-.9l-.36-1.32c-.11-.42-.3-.86-.46-1.27a12 12 0 0 1-.6-2.77c-.04-.52-.14-1.04-.17-1.56-.07-1.18.1-2.37.09-3.55 0-.33.08-.64.09-.96 0-.3.01-.55.05-.85q.12-.87.29-1.74c.07-.31.19-.6.25-.91q.1-.42.23-.82c.2-.6.23-1.23.42-1.82.09-.28.12-.58.24-.85q.18-.37.32-.75l.27-.72c.1-.27.13-.52.25-.79.3-.66.53-1.42.68-2.13.06-.28.22-.53.27-.8.02-.1.03-.2-.08-.24l-.37-.15-.27-.12q-.06-.02-.1-.06m17.8 4.66c-.2.33-.33.78-.48 1.15q-.26.64-.56 1.28c-.2.47-.39.94-.66 1.38s-.39.95-.59 1.41a19 19 0 0 1-1.8 3.29l-1.05 1.51c-.4.54-.9.96-1.29 1.52-.4.6-.75 1.27-1.2 1.83q-.26.34-.45.73a1 1 0 0 0-.07.57q.02.07.1.1h.25c.12.01.26.06.37.02l.42-.18.8-.22c.92-.22 1.68-.81 2.57-1.1.77-.26 1.34-.1 2.1.07.68.15 1.41.4 2.1.44.65.04 1.3-.07 1.96.03.75.12 1.4.39 2.17.4.51 0 .9.16 1.4.2.6.06 1.04.05 1.64.21.38.11.75.22 1.15.23.65.03 1.16.08 1.8.26 1.17.34 1.15-.24 1.64-1.18.17-.32.53-.87.4-1.24-.1-.26-.56-.49-.77-.68-.33-.31-.72-.5-1.13-.75a7 7 0 0 1-1.3-1.02c-.35-.33-.71-.58-1-.97-.24-.31-.56-.49-.75-.84-.43-.79.5-1.06 1.08-1.34l1.54-.8c.54-.28 1.13-.4 1.6-.75.9-.67 2.22-1.04 2.85-2.09.33-.56-.22-.98-.34-1.5a8 8 0 0 0-1-2.41l-.48-.8c-.1-.18-.34-.64-.53-.75-.84-.51-2.13.57-2.77 1.05-.9.67-1.84 1.38-2.85 1.88-.23.11-.6.36-.87.44l-.12.03c-.3.03-.45-.19-.5-.45-.06-.25.02-.46.1-.7.27-.7.71-1.34.91-2.08.1-.32.05-.38-.05-.66-.15-.45-.22-.94-.3-1.4a4 4 0 0 0-.47-1.32c-.17-.28-.1-.47-.18-.75-.14-.04-.62.57-.77.7-.56.46-1.07 1.06-1.58 1.58a18 18 0 0 0-1.7 2.01c-.4.57-.98 1.07-1.34 1.66m67.17 10.5c-.1-.63-.07-1.26-.09-1.91 0-.27-.08-.5-.1-.77-.04-.28.03-.55-.03-.83-.12-.64-.13-1.29-.18-1.95q-.03-.17-.09-.36c-.04-.2 0-.37-.01-.56l-.13-.78c-.07-.59-.33-1.13-.44-1.7-.1-.54-.09-1 .05-1.53.07-.31.21-.65.15-.98-.07-.38-.46-.53-.63-.8l-.07-.16c-.48.45-.75 1.16-1.09 1.71-1.11 1.82-1.7 3.97-2.27 6.02-.43 1.55-.65 3.14-1.12 4.67l-.23.9c-.07.2-.17.41-.2.63-.05.51.16.82.44 1.23q.16.27.45.42l.59.35c.2.12.32.1.55.1.3 0 .54.03.83.08.85.16 1.86.06 2.66-.21.23-.08.74-.1.87-.36.03-.06 0-.13 0-.2l.09-.34c.05-.27.02-.56.02-.84 0-.6.07-1.24-.02-1.83m-29.04-90.4c.29.13.46.37.73.5.34.16.76.2 1.11.34q.53.21 1.07.39.45.13.88.28l.52.22.34.07.4.06c.32.04.6.22.9.28l.25.04.23.08.35.09c.11.02.21 0 .32.03.04.02.27.13.23.2-.02.04-.12.05-.15.06l-.2.11q-.11.07-.24.1c-.64.3-1.17.74-1.76 1.1q-.66.42-1.39.69-.72.25-1.38.65l-.97.63q-.29.16-.56.34l-.27.17c-.12.09-.2.2-.34.28-.08.05-.17.05-.1.15q.05.07.12.1l.26.19q.12.09.25.16c.07.04.1.03.17.05l.21.09c.28.09.55.13.82.24l.3.1c.16.05.32.13.48.15h.6q.29.01.54-.04l.66-.15q.37-.08.72-.2.3-.08.6-.2l.26-.08h.41c.21-.04.42-.12.63-.13q.27.01.54-.08c.38-.13.78-.24 1.13-.42.2-.1.35-.23.55-.3l.54-.27c.2-.1.4-.13.6-.22l.56-.25 1.02-.36c.26-.1.53-.1.8-.17q.2-.06.42-.05l.17-.01c.26-.05.5.05.74.13l.82.25c.31.1.62.24.94.33.26.08.55.05.83.05q.38.01.75-.06l.59-.13c.18-.05.43.02.43-.23 0-.11-.06-.12-.08-.21l-.05-.29-.07-.33c-.08-.25-.22-.48-.28-.74-.06-.23-.08-.54-.23-.73a2 2 0 0 1-.2-.39c-.13-.33-.46-.7-.7-.98q-.4-.44-.76-.93-.25-.38-.4-.8l-.2-.57a2 2 0 0 1-.14-.68q-.02-.45-.12-.88c-.06-.3-.2-.57-.26-.87-.08-.35-.11-.71-.2-1.07a13 13 0 0 0-1.82-4.11c-.44-.63-.66-1.32-1.07-1.94q-.4-.6-.74-1.23l-.2-.34a2 2 0 0 0-.27-.42c-.24-.23-.77-.16-.88.17-.07.2 0 .63 0 .85v.82c0 1.4-.18 2.95.18 4.3.07.3.1.56.1.88s.1.5.15.8c.07.4-.07 1.03.25 1.34-.3-.18-.62-.47-.89-.7-.14-.12-.23-.25-.37-.37-.18-.15-.46-.18-.67-.3-.35-.22-.63-.53-1-.7-.47-.22-.96-.28-1.47-.35-.46-.07-.85-.15-1.31-.16-.29-.02-.52-.14-.8-.15-.14-.01-.29.03-.42 0-.2-.03-.34-.13-.55-.14-.14-.01-.29.02-.43 0-.33-.04-.56-.22-.94-.11 0 .03-.02.07-.44-.03l-.03-.09c-.26.12-.38.57-.52.8-.3.54-.52 1.04-.7 1.62q-.29.95-.6 1.88c-.1.3-.34.75-.24 1.08.1.32.66.6.94.72"/><path d="m892.21 481.09.02.04.01.07q0 .07.04.13c.05.11.13.2.16.31q.06.25.15.5c.13.33.31.64.45.97.3.7.53 1.42.78 2.14a17 17 0 0 0 1.21 2.72q.24.98.7 1.9c.2.4.32 1 .54 1.32.11.15.34.22.44.38.1.2-.04.34.04.5q.24.6.5 1.19.08.13.11.3l.05.13.12.28.13.24.05.08.1.17q.11.25.24.48l.14.25.08.17.12.2.03.1q.03.06.1.12l.07.12.13.22.07.08c.06.05.12.02.17.04s.06.05.1.1l.18.13c.1.08.14.14.2.25q.1.2.25.37l.16.23.14.17q.05.1.12.17l.12.16.15.24.14.22c.12.18.18.37.38.48q.22.1.42.22.53.36 1.1.62l.15.06c.46.2.8.43 1.24.7.33.2.8.3 1.1.53.64.47 1.26.87 1.98 1.24.72.38 1.45.52 2.2.88.69.36 1.51.62 2.2 1.03.3.18.48.5.79.69.32.2.54.09.85.2.3.1.47.39.8.5q.46.13.92.11l.42.2q.44.24.91.46l1.86.77c.5.22 1.04.39 1.52.63q.41.21.83.4c.35.17.75.22 1.1.4q1.3.62 2.56 1.27c.48.25.92.32 1.41.5q.66.26 1.34.4c.73.1 1.44.41 2.15.63l1.03.28q.36.1.68.23c.25.1.58.2.77.4q.1.12.17.26c.09.1.15.1.24.17l.2.19c.07.05.2.08.25.14.16.15.1.45.15.64.08.3.12.65.16.97.03.26.1.5.1.74v1.16l.03.05.01.17c.01.07.04.1.04.18v.54l-.04.16v.31l-.04.35q.01.17-.01.32-.09.5-.1 1v2.11l-.04.2c-.01.16.03.32 0 .47-.02.08-.04.12-.04.21v.26q0 .2-.04.4 0 .15-.02.28l-.03.3q-.04.25-.01.52.03.39.02.78c0 .8 0 1.51.12 2.3l.15 1.07q.07.57.06 1.13c-.02 2.15.21 4.41-.08 6.55q-.13 1.12-.1 2.26v1q0 1.47-.12 2.95l-.01.23c-.14 1.98-.02 4.01-.02 6 0 .76 0 1.49.12 2.24v.08c.1.66.12 1.46 0 2.13v.07c-.24 1.43-.12 2.92-.12 4.38v2.41c0 .88-.14 1.7-.18 2.56q-.01 1.2-.1 2.4c-.11.98-.2 2-.22 2.97v3.99c0 .74-.12 1.42-.16 2.14-.03.5 0 .84-.13 1.3-.1.4-.09.88-.16 1.29q-.05.41-.04.83v1.66q.01.32-.2.56l-.18.26q-.14.17-.26.35a1 1 0 0 1-.27.24c-.18.1-.36.1-.55.12a40 40 0 0 1-2.58.11h-3.67c-2.13 0-4.23.34-6.35.42q-2.04.06-4.07 0c-.09-.2-.2-.4-.23-.49-.34-.66-.58-1.12-.71-1.88-.15-.84-.07-1.7-.16-2.54-.07-.69-.31-1.36-.43-2.04q-.2-1.1-.28-2.24c-.02-.45-.09-.9-.03-1.34.03-.26.1-.45.1-.72 0 0-.08-.4-.05-.45.12-.23.51-.17.79-.26.63-.2 1.39-.18 2.05-.2.55 0 1.05.14 1.59.21.57.08 1.13.11 1.7.22.41.1.8.28 1.2.42.52.18 1.07.3 1.59.48.32.1.69.24 1 .41.12.07.25.2.39.27.34.16.73.14 1.07.26s.29.14.61-.07c.24-.16.4-.3.58-.5.19-.22.43-.36.64-.55.13-.12.28-.26.32-.44q.1-.3.25-.54l.04-.1.05-.11.01-.05v-.05l.08-.2.02-.25c0-.1-.13-.15-.2-.19l-.12-.04q-.04-.04-.1-.06l-.1-.08q-.09-.06-.14-.13l-.06-.07q-.05-.03-.04-.1c0-.21.13-.37.24-.55.09-.14.16-.32.25-.45.15-.24.49-.52.4-.85-.1-.47-.8-.27-1.13-.26-.46.03-.83.03-1.27-.06-.18-.02-.34.02-.44-.12-.04-.05-.05-.15-.08-.21l-.28-.4q-.26-.44-.47-.89l-.82-1.6c-.29-.54-.53-1.13-.88-1.63q-.13-.2-.24-.42c-.12-.22-.3-.32-.37-.56q-.13-.36-.32-.71c-.16-.33-.24-.66-.36-1-.29-.95-1.11-1.56-1.66-2.34-.42-.6-.91-1.13-1.36-1.7-.44-.57-.72-1.34-1.04-1.98-.2-.4-.33-.8-.5-1.22-.08-.18-.17-.45-.39-.5-.3-.04-.32.21-.48.4-.1.14-.29.29-.44.36-.1.06-.3.07-.37.14-.24.24-.44.83-.63 1.17-.26.48-.4 1.12-.57 1.65-.16.5-.16 1.04-.09 1.56q.06.41.17.81l.02.2-.02.1-.3.03q-.06.02-.1-.02l-.04-.12-.12-.23a5 5 0 0 0-.52-.77c-.37-.42-.8-.82-1.2-1.2a5 5 0 0 0-1-.62c-.34-.2-.6-.18-.96-.26-.53-.13-1.02-.08-1.58-.05-.42.02-.72.1-1.12.2-.6.17-1.3.02-1.92.15-.96.21-1.94.23-2.92.28-.47.02-.95 0-1.41.09-.52.09-.96.38-1.45.5-1.74.42-3.44 1.42-4.96 2.37-.81.5-1.49 1.19-2.3 1.7-.88.56-1.77.96-2.6 1.62-.38.3-.85.5-1.2.83-.36.35-.69.71-1.08 1.04-.37.31-.67.65-1.07.94-.58.4-.99 1.1-1.46 1.62-.54.6-.97 1.2-1.55 1.75-.37.36-.77.8-1.1 1.19-.26.3-.42.64-.67.92q-.53.59-1.03 1.18c-.23.26-.47.66-.7.88-.12.11-.27.13-.4.23s-.15.23-.26.37c-.31.4-.84.73-1.24 1.06-.42.36-.65.83-1 1.25-.62.75-1.5 1.36-2 2.17-.06.09-.08.1-.06.19l.07.14c.08.12.3.34.44.37.18.02.44-.22.57-.3.4-.28.77-.58 1.18-.8.61-.35 1.19-.66 1.79-1.05.31-.22.68-.35 1-.56.27-.19.5-.51.83-.6l.36-.02c.1 0 .25-.05.22.09s-.23.31-.31.42l-.63.88-.37.47-.34.46q-.44.57-.8 1.18c-.3.5-.67.97-.99 1.45q-.34.54-.74 1.04c-.1.13-.25.26-.35.41l-.2.36q-.2.25-.34.54-.16.36-.4.67c-.06.1-.11.23-.2.3-.07.04-.09.1-.16.15q-.07.04-.12.09l-.15.05q-.12.05-.22.12c-.05.02-.05.03-.11.03h-.2q-.1-.02-.21 0-.04 0-.1.03h-.23c-.05 0-.06.03-.12.03h-.39l-.9-.03h-.94q-.07 0-.13-.03l-.28-.03q-.15-.03-.3-.03-.14-.01-.27-.05l-.36-.05-.2-.05q-.07 0-.12-.03c-.18-.06-.37-.04-.54-.12a1 1 0 0 0-.33-.09h-.2q-.11 0-.21-.03h-2.16c-.18 0-.36-.02-.54.03l-.34.11q-.3.06-.63.04h-1.5c-.31 0-.37.13-.44.53-.03.27.01.56.01.81 0 .43-.08.8-.1 1.21-.04.27 0 .53 0 .8 0 .34-.07.66-.1 1-.07.76-.12 1.46-.12 2.23.01.52-.11 1-.1 1.53v1.35c0 .27-.04.58 0 .85q.41.06.79.16c.1.04.13.1.26.13h.41q1.16.02 2.33-.07c.56-.05 1.01.18 1.55.33 1.64.41 3.37.42 5.04.42h1.09c2.7 0 5.36-.42 8.05-.4 5.9.06 11.82 0 17.71 0 2.5 0 4.93.07 7.4-.29 1.7-.26 3.42-.13 5.12-.4.67 0 1.34-.26 2-.08q.54.14 1.1.15.48.02.94.16l.28.12q.09 0 .17.03c.16.07.1.32.1.46a1 1 0 0 1-.13.44c-.02.05-.05.15-.09.18-.08.07-.28.1-.38.14q-.27.11-.55.15c-.09.01-.17-.02-.25 0l-.26.08c-1.2.33-2.47.47-3.7.69-.14.02-.3-.04-.44 0-.25.08-.5.22-.74.31q-.4.17-.84.28c-1.67.41-3.21.73-4.87 1.32l-5.76 2.1c-4.34 1.6-8.96 3-13 5.26-.22.13-.38.24-.56.42s-.53.29-.77.36q-.48.14-.92.4-.24.15-.49.27-.21.09-.42.15-.21.08-.42.19-.2.08-.4.21c-.2.17-.43.44-.7.51s-.54.26-.77.42q-.31.19-.61.4c-.19.15-.4.24-.58.4l-.42.3q-.17.15-.37.28c-.05.02-.17.04-.2.1-.07.1.08.14.16.2q.16.13.3.28.18.19.39.38.18.19.38.33c.44.29.8.67 1.2 1.02q.62.58 1.29 1.14l1.26 1.04c.19.16.4.26.58.42.3.26.62.53 1.01.67.45.17 1.07-.04 1.49-.16.13-.04.27 0 .4-.04.1-.02.18-.13.26-.16q.75-.29 1.46-.59.44-.18.87-.43t.9-.42l.82-.3c.26-.1.53-.16.77-.29q.45-.23.92-.35c.6-.15 1.28-.45 1.87-.7.16-.07.31-.19.48-.25l.48-.11q.15-.06.29-.15l.46-.16.4-.25c.2-.1.4-.09.62-.16.18-.06.36-.19.54-.27q.39-.18.79-.34 1.23-.52 2.42-1.12c.3-.16.67-.37 1-.44q.47-.08.87-.3.26-.15.55-.25.42-.17.82-.38.78-.36 1.53-.79c.53-.3 1.03-.64 1.58-.92.4-.2.8-.37 1.19-.6q.36-.2.76-.33.55-.15 1.1-.27l1.1-.3q.7-.15 1.36-.34c1-.33 1.95-.66 2.95-.96q.4-.14.8-.32c.2-.1.43-.1.65-.16.33-.07.65-.28.98-.32.31-.04.64.05.96-.02.33-.06.62-.07.95-.07h.48c.17 0 .31-.08.48-.1.27-.03.53-.14.8-.17a3 3 0 0 0 .7-.16q.2-.1.41-.17.29-.05.58-.05c.24 0 .46-.07.7-.08.12 0 .16-.03.27-.06q.18-.03.36-.01c.14-.01.22-.07.35-.09.18-.03.37.03.55-.01.22-.06.4-.06.64-.06h2.38c.43 0 .77.14 1.18.23l.27.02q.13.05.28.06c.2 0 .38.08.59.08h.58c.21 0 .38.08.6.08h.35c.1 0 .15.05.24.07l.3.05c.41.09.88.11 1.26.3.26.12.44.35.68.5.36.23.76.37 1.12.6q.57.37 1.18.67 2.25 1.03 4.47 2.21c.7.38 1.35.75 2.1.96.79.22 1.63.55 2.13 1.22q.32.44.75.78c.38.3.52.5.27.97-.07.13-.15.22-.22.36-.06.12-.14.35-.24.44-.11.1-.47.11-.62.08-.09-.03-.1-.1-.18-.11-.08-.02-.22 0-.3 0-.24 0-.35-.1-.59-.1q-.28.01-.53-.04l-.25-.05-.22-.08c-.18-.04-.37 0-.56-.02s-.28-.1-.49-.1q-.29.01-.56-.02c-.05-.01-.16-.06-.24-.07l-.37-.1-.39-.1-.68-.1c-.2-.02-.28-.1-.49-.1a1 1 0 0 1-.49-.1c-.16-.06-.3-.06-.49-.09-.42-.07-.82-.27-1.26-.3q-.16.02-.3.01c-.14-.01-.1-.09-.19-.1-.1-.03-.2 0-.3-.02-.07-.02-.1-.07-.19-.09-.13-.02-.25.02-.39-.01-.12-.03-.17-.07-.3-.08H930c-.24 0-.4.02-.63.08-.2.05-.4 0-.59.04-.16.04-.32.13-.48.18q-.34.07-.7.2c-.2.08-.35.05-.57.11-.13.04-.3.13-.41.15-.34.07-.7-.03-1.03.05q-.15.04-.29.12a9 9 0 0 1-1.44.42l-.58.08c-.18.03-.36.13-.52.16-.28.07-.54.1-.79.2-.16.08-.32.06-.5.1-.13.02-.26.1-.4.15q-.53.21-1.04.44c-.22.08-.46.1-.68.2q-.3.11-.61.27-.47.22-.97.4c-.4.13-.83.23-1.2.43l-.48.23c-.12.07-.21.18-.33.23q-.12.04-.25.04c-.33.06-.55.3-.86.41s-.61.32-.87.52c-.27.2-.55.33-.83.5-.39.24-.85.46-1.26.62q-.27.12-.53.26c-.19.1-.32.25-.5.33-.1.05-.23.04-.33.1l-.24.15q-.26.12-.5.26c-.3.2-.6.32-.91.48-.34.17-.65.32-.92.59s-.63.49-.99.66l-.33.18c-.12.05-.24.04-.35.09-.1.03-.2.11-.29.15l-.36.15c-.14.05-.27.16-.4.23-.23.14-.5.38-.7.56l-1.8 1.56c-.14.12-.3.18-.45.27q-.13.12-.27.22l-.43.27q-.59.36-1.24.6-.83.34-1.63.73c-.2.1-.4.15-.59.24-.24.11-.39.31-.64.4-.22.1-.33.19-.51.35-.05.04-.2.15-.18.22 0 .11.16.12.23.17.22.15.28.44.47.63.2.21.5.34.72.56.69.7 1.59 1.2 2.34 1.85.49.43 1.06.75 1.6 1.12.66.45 1.39.72 2.15.94q.3.1.63.02c.28-.08.56-.26.82-.41.27-.16.47-.42.76-.55.48-.2.85-.5 1.3-.78q.62-.37 1.27-.7c.34-.18.65-.41.97-.6q.24-.13.46-.28c.12-.1.18-.23.33-.31q.39-.24.81-.44c.26-.12.5-.31.77-.46l.56-.32.62-.31c.55-.27 1.1-.44 1.67-.71.53-.25 1.06-.54 1.6-.75q.85-.31 1.6-.76c.2-.12.46-.24.69-.31.14-.05.24-.06.37-.12.14-.07.28-.18.42-.24q.22-.07.42-.18c.13-.07.27-.2.42-.24s.2-.05.33-.12l.5-.23.42-.14c.18-.08.33-.21.5-.3l.86-.37c.52-.26 1.17-.3 1.73-.54q.24-.1.47-.23c.12-.07.2-.13.35-.2l.69-.28c.3-.13.64-.26.92-.42l.58-.38c.5-.33 1.01-.47 1.55-.6.27-.07.53-.22.8-.3.29-.09.58-.15.87-.26.29-.1.58-.12.88-.17l.59-.14.25-.01c.12-.02.14-.07.24-.1l.18.01c.12 0 .17-.04.26-.06q.24-.04.49-.02h1c.19 0 .28-.08.46-.08h1.54q.25-.02.49.01l.18.07q.13 0 .24.02c.12.02.3.1.43.15q.2.06.43.08c.15.02.25.06.41.08l.19.07c.56.12 1.14.13 1.66.43.48.28 1.12.51 1.67.5h.67c.5 0 1.06-.1 1.49.16.44.27.9.54 1.4.7.64.21 1.28.36 1.92.57q1.21.44 2.41 1c.54.23 1.12.24 1.68.38q.77.18 1.55.39 2.13.51 4.24 1.17c.54.17 1.32.23 1.74.63.32.32.47.74.26 1.17-.2.4-.63.67-1.07.73-.59.1-1.15.2-1.76.2h-2.35c-.2 0-.33.07-.52.09-.18.02-.37-.03-.55 0l-.5.1-.95.2c-.14.04-.25.02-.4.04s-.3.15-.45.2c-.3.12-.63.12-.94.24-.29.11-.59.15-.88.25q-.53.17-1.06.28-.13.04-.25.1c-.11.02-.24-.04-.36-.02q-.44.1-.87.27c-.31.1-.63.17-.92.3-.59.27-1.25.31-1.82.6-.53.26-1.06.5-1.56.81-.29.19-.64.24-.96.39-.27.13-.5.28-.78.38-.16.06-.25.15-.38.24-1.2.8-2.45 1.57-3.76 2.17a7 7 0 0 0-1.73 1.06c-.15.14-.34.2-.5.32l-.27.25c-.21.17-.48.3-.7.46-.14.11-.24.28-.39.4q-.17.1-.33.25-.25.23-.53.44c-.17.13-.4.22-.58.36-.2.15-.4.34-.62.48l-.33.18c-.13.08-.21.2-.33.3-.11.09-.24.12-.37.19-.18.08-.32.22-.48.33q-.49.33-.98.63c-.27.17-.53.38-.8.53l-.71.44q-.4.2-.77.44c-.12.07-.27.18-.4.24-.09.05-.2.05-.28.1-.14.07-.24.2-.36.3-.22.17-.45.26-.66.46-.23.21-.49.26-.55.63-.04.23.22.34.4.44.3.16.55.41.87.55.28.12.52.25.8.39.33.17.62.2.9.44q.37.32.84.5c.46.19.84.47 1.3.69q1.06.47 2.07.98c.33.16.57.37.95.31q.5-.07.98-.2c.85-.2 1.57-.54 2.24-1.1.66-.55 1.3-1.25 2.08-1.62.54-.26 1.02-.64 1.56-.91l1.75-.87c.49-.24.93-.57 1.41-.85.24-.14.5-.16.75-.26.36-.12.72-.3 1.07-.45q.78-.4 1.6-.73c1.12-.43 2.14-1.17 3.24-1.67q.75-.3 1.44-.7c.35-.2.72-.3 1.07-.5.23-.15.43-.35.68-.46.77-.4 1.64-.6 2.45-.84 1.69-.5 3.4-.91 5.08-1.4l.67-.2q1.79-.55 3.6-.6c.88-.03 1.73-.28 2.6-.34q.19 0 .38.03c.62.15 1.26.06 1.88.22.32.09.69-.04 1.01.04s.61.24.93.35c.3.11.66.34.97.37q.21.02.42.07c.15.04.3 0 .46.04.17.05.28.08.46.08s.39-.04.56.01l.44.2.39.13q.24.13.46.28c.17.11.34.08.51.16.24.11.48.28.74.33.14.03.22.01.35.07l.44.18q.37.15.76.28c.25.08.5.2.74.28.29.1.5.18.76.34.29.18.66.31 1 .33.59.03 1.1.32 1.65.53.23.1.48.13.7.23.24.1.45.26.68.37.77.39 1.39.97 2.21 1.29q.33.11.64.24.32.17.67.24c.36.07.7.06 1.05.2.38.15.73.37 1.09.55.2.1.42.15.62.26.09.05.14.14.25.18l1.03.4c.12.06.24.18.37.21.21.07.38.1.6.2.87.45 1.86.87 2.8 1.18.5.16.94.44 1.42.65.36.16.75.23 1.1.33.66.19 1.24.59 1.95.7.1.01.2-.02.3 0s.17.1.29.12q.11-.02.24-.02c.09.02.1.1.18.12.4.07.84.08 1.22.18q.22.04.47.06c.19.02.27.1.46.12.4.05.77.17 1.15.26.15.03.34.14.5.18.18.05.31.06.48.13.36.15.75.18 1.14.28.05 0 .06.08.13.1.1.02.25-.01.36-.01.28 0 .35.02.56-.15.28-.22.51-.5.8-.73.27-.23.52-.48.82-.65q.3-.14.55-.32c.24-.19.5-.33.68-.58l.63-.8.36-.42.17-.23q.12-.07.22-.19.2-.2.42-.39l.44-.4q.19-.15.36-.31c.1-.1.15-.2.24-.3.06-.07.16-.09.22-.16.13-.18-.13-.39-.26-.49-.15-.13-.35-.2-.5-.31-.09-.07-.1-.1-.2-.13s-.22-.09-.3-.1a10 10 0 0 1-1.98-.59 6 6 0 0 0-2.06-.62 2 2 0 0 1-.68-.1l-.75-.18-.75-.15-.68-.21q-.2-.09-.41-.14c-.18-.05-.36.01-.53-.03-.2-.04-.34-.13-.56-.17a7 7 0 0 1-.97-.24q-.74-.25-1.49-.4c-.23-.06-.28-.18-.48-.26-.11-.05-.26-.01-.38-.05-.16-.06-.28-.19-.45-.24-.1-.04-.21 0-.33-.04-.46-.12-.8-.37-1.23-.55s-.84-.29-1.23-.51c-.54-.3-1.13-.5-1.7-.81-.78-.43-1.62-.81-2.43-1.07a106 106 0 0 1-5.02-1.77c-.49-.19-1-.32-1.53-.48-.59-.18-1.25-.27-1.8-.53-.41-.2-.83-.48-1.27-.66-.39-.16-.71-.43-1.12-.56-.4-.13-.86-.02-1.23-.16-.44-.16-.33-.84-.01-1.1l.12-.04.09-.07.2-.07.26-.13c.53-.3 1.14-.47 1.73-.6.76-.2 1.48-.73 2.2-1.08.56-.29 1.13-.43 1.69-.67.55-.25 1.07-.6 1.63-.85.68-.29 1.38-.45 2.06-.75q1.1-.47 2.2-.76 1.5-.37 2.97-.79c.86-.22 1.68-.45 2.57-.44h2.53c.74 0 1.5-.07 2.24.09 1.7.35 3.45.46 5.13 1.12.48.2.98.29 1.47.48.5.21.97.57 1.48.76.56.22 1.1.39 1.67.65.63.27 1.2.59 1.81.95 1.22.72 2.56 1.03 3.78 1.71.63.34 1.18.8 1.84 1.07q.9.41 1.81.79c.44.15.84.43 1.22.72.22.15.43.35.66.46.13.05.26.04.38.08.33.09.57.5.85.73.26.2.58.25.87.33.19.05.3.13.47.23.16.07.33.06.48.1.07.03.12.1.18.1q.26.07.48-.1c.56-.36 1.04-.99 1.57-1.44.27-.25.49-.55.75-.8.23-.2.5-.38.72-.62.2-.2.37-.44.58-.63.26-.22.52-.53.74-.8l.53-.62c.15-.18.44-.38.4-.66-.03-.14-.22-.36-.3-.47a2 2 0 0 0-.4-.36q-.08-.05-.15-.12c-.25-.2-.45-.44-.73-.6l-.58-.28c-.22-.12-.37-.31-.57-.44-.25-.16-.55-.25-.8-.43l-.21-.19q-.22-.18-.45-.32-.4-.23-.8-.42c-.27-.13-.55-.23-.8-.39-.6-.36-1.14-.79-1.77-1.1a20 20 0 0 1-2.53-1.57l-.37-.3q-.28-.16-.57-.3l-.23-.13c-.07-.05-.1-.1-.18-.13l-.5-.35a1 1 0 0 0-.45-.16l-.14-.06-.54-.34c-.25-.15-.53-.23-.77-.38l-.41-.22q-.13-.05-.27-.06l-.3-.08q-.3-.07-.59-.17l-.4-.16q-.4-.13-.78-.31c-.28-.1-.55-.27-.84-.34-.26-.07-.52-.1-.78-.19l-.35-.08-.24-.08-.27-.03c-.4-.1-.75-.23-1.15-.33l-.3-.1-.26-.05-.32-.14c-.26-.1-.52-.16-.76-.28a3 3 0 0 0-.76-.32l-.23-.04-.16-.07-.4-.13q-.25-.08-.49-.11h-.96c-.17 0-.25-.15-.42-.18l-.27-.04q-.15-.02-.32-.01-.49 0-.98-.04l-.43-.1c-.2-.03-.41 0-.61-.02q-.39-.04-.78-.03-.28 0-.55-.04c-.19-.03-.4 0-.6 0h-1.23c-.15 0-.27-.05-.41-.05l-.23-.04c-.15-.03-.32 0-.47 0h-.65q-.17-.02-.33 0-.14.03-.29.04-.22 0-.45.06-.17.03-.34.03c-.23 0-.45.08-.67.12l-.26.06c-.1.02-.2 0-.3.03l-.48.08q-.25.05-.52.13c-.18.07-.36.07-.55.1q-.85.15-1.68.38-.3.1-.57.17c-.28.07-.53.23-.8.32l-1.1.38-.57.16c-.2.05-.4.03-.59.08q-.46.1-.93.14-.37.04-.72.14-.29.08-.56.19l-.7.2-.93.23q-.27.05-.52.14l-.5.18-.2.1q-.12.03-.23.09-.65.4-1.33.7-.42.19-.86.32c-.26.09-.52.24-.8.26-.18 0-.36-.05-.54-.04-.43.04-.87.2-1.3.32-.74.2-1.48.43-2.24.6-1.05.24-2.03.4-3.1.4h-1.15c-.6 0-1.15.18-1.74.22-.8.05-1.61-.32-2.38-.5-.43-.1-.84-.28-1.25-.42-.09-.26.07-.72.09-.97s.06-.4.26-.5c.27-.1.6-.12.87-.19q.45-.12.92-.3c1.23-.44 2.4-1.06 3.62-1.49l.27-.09c.32-.1.66-.13.97-.24.9-.36 1.63-1.2 2.46-1.72.6-.36 1.17-.87 1.8-1.23.75-.42 1.5-.74 2.23-1.23q1.04-.73 2.1-1.4c1.67-1 3.6-1.83 5.37-2.65.27-.14.5-.15.75-.23.13-.04.22-.2.36-.24.44-.16.94-.2 1.4-.3.4-.1.83-.17 1.18-.4.46-.28.85-.4 1.34-.5.65-.14 1.35-.58 1.95-.9.67-.36 1.4-.53 2.12-.74.82-.26 1.7-.16 2.55-.29.6-.09 1.18-.32 1.77-.44.56-.14 1.1-.1 1.66-.1s1.1-.12 1.65-.13a11 11 0 0 0 1.72-.15c.63-.14 1.3-.31 1.94-.23.17 0 .3.1.46.14.15.03.33-.01.48-.01.67 0 1.36-.07 2.02 0 .88.06 1.74.4 2.64.5.25.03.42.15.67.23.18.08.4.06.59.11.57.18 1.14.32 1.71.52.4.15.82.23 1.22.42q.48.23.95.48c.47.22.87.45 1.3.76.61.42 1.3.44 1.91.78.5.29 1.02.47 1.52.72.41.19.76.53 1.2.67.43.12.89.34 1.3.55l.52.36c.25.16.53.27.77.46.36.26.67.62 1 .9l1.34 1.15c.38.34.83.64 1.25.92.17.11.35.17.52.27.2.13.34.32.53.46.25.2.56.37.82.53.3.2.5.44.78.65q1.19.81 2.32 1.75c.3.25.65.42.96.66q.38.26.74.48c.3.19.56.38.87.57.31.2.65.46.95.68q.34.28.66.6c.15.12.36.22.5.37.21.19.45.41.71.47.31.1.5-.1.75-.32.74-.68 1.53-1.27 2.26-1.98q.38-.39.8-.71c.28-.18.48-.49.77-.68.12-.08.27-.13.38-.25l.3-.33q.19-.17.36-.38c.13-.12.23-.3.35-.43q.11-.1.21-.25l.15-.32c.07-.14.16-.21.19-.39.07-.34 0-.5-.18-.72-.25-.25-.45-.54-.72-.77-.34-.3-.62-.68-.97-.97-.46-.4-.82-1-1.3-1.38-.54-.43-1.15-.69-1.7-1.11-.22-.16-.41-.4-.63-.58-.22-.16-.45-.26-.66-.44q-.63-.5-1.32-.92c-.4-.24-.8-.44-1.17-.74l-.13-.15-.15-.09-.15-.07-.28-.16q-.41-.22-.8-.5l-.25-.24-.4-.22q-.12-.06-.26-.1l-.2-.08-.34-.16q-.33-.13-.65-.3-.18-.08-.36-.19l-.33-.14-.33-.23c-.14-.08-.3-.1-.42-.2-.15-.14-.37-.22-.54-.32l-.56-.33q-.31-.18-.62-.39-.16-.08-.3-.18l-.2-.19-.12-.03-.1-.07-.17-.07-.3-.16c-.1-.04-.25-.07-.36-.08q-.18-.04-.35-.13-.18-.06-.35-.14-.17-.1-.32-.23l-.18-.12-.24-.13-.34-.23q-.39-.24-.78-.45l-.17-.08-.11-.07-.28-.13c-.12-.05-.21-.15-.33-.2l-.49-.2-.4-.24q-.14-.08-.2-.24v-.11c.07-.17.26-.33.37-.47.35-.42.72-.5 1.19-.52 1.6-.02 3.22.01 4.82-.15q.59-.05 1.18-.14c2.5-.38 5-.3 7.5-.47 1.54-.09 3.19-.34 4.68-.7 1.42-.35 2.87-.02 4.31-.37a22 22 0 0 1 5.64-.51c.49 0 1.71.3 2.1-.06.37-.34.29-1.41.35-1.88.06-.44.28-.73.34-1.17.05-.41-.03-.75.05-1.17.17-.84.25-1.45.25-2.35 0-.69.24-2.07-.3-2.37-.48-.26-1.33.18-1.87.06-.64-.16-1.06-.43-1.75-.41h-13.19a.5.5 0 0 0-.34-.33v.18c-.03-.24-.12-.49-.18-.68-.09-.32-.07-.63-.13-.98-.14-.87-.47-1.83-.5-2.72-.05-.76 0-1.49-.1-2.25-.12-.72-.03-1.45-.15-2.19-.1-.62-.03-1.31-.03-1.94.01-.95-.14-1.84-.13-2.79 0-1.94-.42-3.9-.4-5.85v-2.9c0-.9.04-1.82-.11-2.74-.08-.48.02-.97-.06-1.46a6 6 0 0 1-.11-1.05v-2.57c0-2.56.34-5.1.4-7.66.02-.94.14-1.87.14-2.8v-2.11c0-.59.09-1.23-.03-1.8q-.17-.98-.24-1.97c-.11-1.4-.64-2.8-.98-4.17-.16-.63-.37-1.24-.37-1.89v-.82c0-.26-.02-.53.03-.78.02-.1.1-.17.11-.3.02-.13-.02-.27 0-.4.02-.48.25-.9.39-1.3q.09-.23.22-.45l.13-.27q.06-.06.16-.04.23.02.43.13l.44.16q.16.05.3.14l.17.2c.16.17.27.36.42.53.13.15.3.27.4.44s.2.36.33.51c.16.2.38.35.55.55.15.18.3.43.43.63.25.39.43.83.7 1.19q.37.55.56 1.2c.07.2.1.45.21.64q.16.25.26.52c.26.73.63 1.41.92 2.13l.4.91c.13.27.15.54.27.8.25.58.38 1.18.6 1.77q.31.85.59 1.73c.1.35.15.72.29 1.07.11.27.24.47.31.78.13.53.35 1.05.48 1.58q.32 1.23.73 2.43.48 1.37.74 2.79c.18.93.18 1.83.18 2.78V552c0 .43-.15.8-.15 1.22.01.19-.07.53 0 .68.1.23.45.13.68.13.4 0 .72-.1 1.08-.14.24-.03.5.01.74 0 .28 0 .48-.12.74-.13h1.76c.33 0 .36.04.4-.26.1-.76.04-1.66-.1-2.4-.13-.75-.07-1.55-.2-2.3-.07-.46-.21-.94-.24-1.4-.02-.35.06-.7.02-1.04-.04-.27-.12-.52-.14-.8l-.1-.67c-.11-.66-.18-1.33-.33-1.98q-.15-.59-.37-1.15c-.18-.5-.25-1-.34-1.52-.1-.63-.46-1.15-.64-1.75-.06-.2-.22-.34-.26-.54-.04-.27-.14-.55-.17-.82-.02-.14.01-.23-.05-.35l-.2-.41q-.14-.32-.3-.63-.13-.3-.16-.63c-.03-.25-.12-.45-.2-.69q-.17-.45-.31-.88-.32-1.05-.69-2.06c-.23-.64-.62-1.22-.87-1.87-.29-.75-.66-1.46-.93-2.21-.15-.4-.28-.84-.46-1.2q-.21-.42-.45-.8l-.23-.45c-.08-.11-.17-.18-.24-.3-.14-.27-.25-.55-.43-.8-.4-.54-.92-1.03-1.27-1.6q-.14-.26-.32-.5c-.43-.55-1.08-.83-1.49-1.42-.67-.97-1.16-2.02-1.88-2.97-.45-.6-.74-.51-.95-1.25q-.37-1.3-1.03-2.5a7 7 0 0 1-.6-1.35c-.32-1.05-.12-2.4-.12-3.5v-3.79c0-.7.19-1.54-.34-2.08q-.5-.51-1.04-.98c-.24-.22-.53-.3-.78-.5-.22-.17-.4-.42-.63-.61-.25-.22-.45-.56-.72-.75-.25-.2-.44-.25-.68-.5-.31-.36-.83-.8-1.28-.98-.18-.08-.38-.23-.58-.26-.21-.03-.4.13-.6.15-.19 0-.3.1-.43.23l-.39.42-.32.36q-.15.21-.35.39c-.12.1-.19.24-.3.35q-.31.29-.55.65c-.17.27-.27.58-.45.84l-.6.98c-.1.13-.24.25-.33.38-.06.08-.08.15-.15.23q-.12.12-.2.26-.14.16-.3.3-.08.15-.2.26c-.22.22-.36.5-.58.73q-.32.35-.67.65c-.13.1-.24.27-.4.35l-.15.06c-.15.07-.31.03-.48.03h-.4q-.15 0-.3-.03l-.13-.04-.15-.02-.13-.06-.13-.04-.14-.03-.04-.02-.07-.03q-.13-.03-.24-.1-.07-.01-.12-.04l-.13-.06-.16-.08-.34-.2-.65-.4-.85-.65c-.28-.2-.56-.3-.85-.46-.43-.26-.8-.68-1.23-.94a4 4 0 0 0-.82-.38c-.37-.13-.5-.33-.82-.56-.48-.34-.93-.76-1.44-1.06-.51-.32-.89-.76-1.41-1.08-.5-.3-1.06-.56-1.49-.97q-.6-.61-1.17-1.26c-.43-.44-.79-.95-1.22-1.38q-.76-.75-1.45-1.54c-.53-.6-.93-1.37-1.41-2-.48-.61-1.05-1.05-1.46-1.72-.21-.33-.5-.65-.66-1.01-.18-.42-.31-.85-.52-1.26-.37-.7-.5-1.48-.7-2.24q-.13-.57-.36-1.1c-.3-.67-.49-1.44-.66-2.17-.05-.2-.14-.43-.17-.66-.05-.31 0-.63-.06-.95-.19-.81-.1-1.67-.1-2.52l-.23-2.86c0-.22.06-.58 0-.8-.11-.33-.42-.23-.75-.16-.68.1-1.26.25-1.96.25-.43 0-.86-.03-1.28.07-.3.07-1.04-.07-1.26.22-.1.17.19 2.22.22 2.42.12.65.12 1.26.12 1.94 0 .31-.03.64 0 .95.03.35.14.56.14.92-.02.82.16 1.72.3 2.52.07.37.07.75.13 1.11.07.42.2.76.24 1.18.13 1.8.9 3.64 1.43 5.34.2.6.5 1.16.74 1.75.14.36.22.72.39 1.07.38.75.74 1.5 1.23 2.18.4.56.85 1.03 1.2 1.62.22.34.55.58.85.85.85.8 1.66 1.61 2.56 2.37 3.01 2.52 5.95 5.11 9.03 7.56.73.58 1.53 1.05 2.26 1.64.39.32.78.61 1.11.99.2.2.34.41.55.6.79.7 1.57 1.6 1.6 2.7l.1.03c.08.24.04.42.16.65.12.21.15.34.14.6-.03.67-.53 1.2-.71 1.82-.28.95-.61 1.92-.91 2.88q-.36 1.04-.57 2.13c-.15.73-.53 1.45-.77 2.15-1.2 3.38-3.25 6.39-4.4 9.78a40 40 0 0 1-1.72 4.45 36 36 0 0 0-1.32 3.17 60 60 0 0 0-1.04 3.22c-.14.5-.2.91-.18 1.44.03.45.19.94.36 1.35q.49 1.2.83 2.46.44 1.6.99 3.2c.21.63.3 1.3.54 1.93.16.44.22.9.4 1.34.45 1.22.77 2.51 1.15 3.76.16.5.43.97.6 1.48q.35 1 .78 2c.33.8.52 1.59.7 2.43.17.79.52 1.51.71 2.28.18.7.47 1.36.7 2.04.3.9.43 1.8.61 2.72.15.73.4 1.43.59 2.15s.26 1.44.5 2.13q.17.57.29 1.15c.07.28.2.5.31.77.12.28 0 .46-.05.73l-.08.48c-.02.12.01.26-.07.36q-.1.1-.21.14c-.18.1-.36.27-.55.32q-.1.02-.2 0-.32-.02-.65-.01-.47 0-.93.02-1 .05-1.99.07h-3.36a8 8 0 0 0-.72-1.05c-.42-.52-.67-1.14-1.1-1.66-.3-.38-.65-.71-.93-1.12-.5-.75-.9-1.57-1.35-2.36-.38-.69-.75-1.28-1.23-1.92-.47-.6-.98-1.2-1.35-1.83-.44-.74-1.05-1.31-1.37-2.15-.27-.75-.53-1.49-.96-2.18q-.44-.68-.8-1.43c-.18-.45-.28-.95-.5-1.39-.4-.8-.9-1.53-1.32-2.3q-.4-.74-.74-1.5c-.18-.42-.43-.77-.64-1.17l-.44-.96c-.22-.46-.5-.93-.72-1.4-.19-.44-.31-.83-.6-1.23a9 9 0 0 1-.7-1.25c-.35-.76-.61-1.55-.87-2.33-.15-.44-.4-.83-.6-1.25s-.3-.85-.49-1.26q-.5-1.06-1.06-2.08c-.34-.6-.46-1.3-.82-1.9-.22-.33-.5-.6-.71-.94-.5-.82-.97-1.7-1.23-2.63-.25-.86-1-1.58-1.67-2.14-.17-.14-.3-.35-.46-.48-.25-.2-.6-.23-.87-.38-.53-.29-1.14-.3-1.73-.36s-1.16-.35-1.76-.4c-.47-.05-1-.1-1.42-.31-.26-.12-.46-.3-.75-.37-.39-.08-.75-.03-1.12-.2-.2-.11-.54-.31-.66-.5-.13-.19-.04-.35-.09-.55q-.06-.21-.14-.41l-.3-1.1c-.12-.55-.38-1.05-.53-1.6-.1-.32-.2-.73-.36-1.03-.13-.24-.44-.36-.58-.57a3 3 0 0 1-.27-.79 5 5 0 0 0-.67-1.48l-.54-.82c-.14-.24-.26-.6-.52-.74-.17-.1-.72-.05-.93-.03-.28.03-.49.21-.76.28-.37.1-.73.11-1.1.2l-1.29.39-2.36.73c-.68.22-1.36.3-2.04.47-.61.16-1.14.4-1.7.67-.14.06-.3.07-.42.16-.13.11-.08.1-.17.27q-.22.45-.36.92c-.1.37-.17.75-.3 1.1-.33.85-.82 1.69-1.2 2.54-.48 1.07-.79 2.2-1.28 3.26q-.6 1.27-1.17 2.55c-.75 1.65-1.27 3.36-1.87 5.07-.34.96-.63 1.93-.96 2.9-.35 1.02-.89 1.98-1.25 3-.55 1.5-1.26 2.95-1.84 4.44-.3.78-.57 1.54-.92 2.3-.25.54-.52 1.09-.7 1.66-.35 1.14-.78 2.23-1.2 3.35-.36.93-.87 1.8-1.21 2.74q-.5 1.34-.97 2.72c-.26.76-.73 1.42-1.03 2.17-.17.43-.44.82-.6 1.25q-.1.3-.24.55a11 11 0 0 0-.68 1.24c-.33.75-.5 1.61-.97 2.3q-.58.88-1.3 1.69-1.47-.1-2.97-.11c-2.04 0-4.1-.06-6.16-.08q0-.08-.02-.15c-.04-.21-.18-.45-.2-.6-.1-.42-.08-.87-.07-1.3.01-.58-.22-.84-.28-1.38-.06-.55-.25-1.1-.28-1.64-.03-.55.08-1.1-.05-1.65-.14-.52-.22-.79-.21-1.37v-10.67c0-1.99-.39-4.45.28-6.31.3-.85.25-1.75.27-2.73 0-.54-.19-.65-.3-1.08-.13-.58.06-1.34.02-1.93-.02-.5-.25-.87-.28-1.37-.03-.54 0-1.1 0-1.64V518.8c0-.8-.03-1.58 0-2.37 0-.1.05-.21.04-.32-.03-.32-.17-.59-.1-.91.02-.07.05-.1.06-.17 0-.09.03-.13.05-.2l.06-.2.11-.18c.14-.22.35-.41.5-.63q.1-.15.23-.29l.16-.13q.13-.1.24-.23c.27-.22.6-.29.9-.48q.42-.35.9-.66c.22-.13.4-.32.63-.45q.19-.1.38-.17c.12-.06.2-.06.34-.1l.29-.06.25.02c.19-.03.37-.12.55-.17.37-.12.73-.31 1.12-.43a13 13 0 0 0 1.39-.51l.35-.16c.15-.05.28-.05.43-.1q.2-.06.4-.16.22-.09.43-.14l.19-.07.14.01c.04 0 .05-.05.09-.06l.54-.12.25-.07.3-.17.44-.26q.22-.1.48-.17c.33-.07.6-.23.96-.25q.3 0 .57-.12l.29-.1.24-.07c.18-.04.38-.04.56-.08l.25-.08.26-.1c.2-.05.38-.01.58-.08q.28-.1.6-.13c.1 0 .19-.06.29-.06h.3c.1 0 .11-.03.2-.07h.13c.27-.07.52-.2.81-.2q.17 0 .35-.05c.77-.2 1.57-.4 2.3-.72q.59-.27 1.15-.48c.53-.24.97-.57 1.5-.83.87-.41 1.75-.71 2.54-1.16q.58-.35 1.15-.74c.52-.36.8-.82 1.24-1.25q.58-.53 1.13-1.07.08-.08.13-.17.1-.23.25-.48c.24-.34.43-.7.7-1.02.16-.2.2-.35.31-.57.06-.15.17-.25.24-.4.19-.36.42-.7.6-1.07.07-.2.12-.39.25-.57l.25-.53.25-.43.27-.51q.59-1 1.07-2.06.23-.45.45-.93.24-.4.4-.86.08-.3.2-.57c.05-.14.18-.25.23-.4l.07-.14.07-.15.14-.28.02-.06.04-.06.04-.09q0-.04.04-.09l.02-.07.04-.09.03-.08.04-.07.07-.16.04-.1c.12-.22.18-.47.3-.68.1-.16.13-.36.2-.53q.09-.17.13-.36.03-.16.08-.3l.04-.09.03-.07.04-.15.08-.22q.04-.07.05-.14l.04-.2q0-.06.03-.13l.02-.14.02-.15q.01-.08.04-.15l.05-.15.04-.1q0-.05.03-.1l.07-.08.02-.07.02-.05.02-.15.03-.17c0-.18.05-.36.07-.53 0-.12.03-.23-.1-.28q-.18-.06-.37-.08c-.17-.04-.32-.12-.48-.15h-3.4c-.16 0-.39-.01-.53.06a.3.3 0 0 0-.13.1q-.3.37-.5.79c-.24.49-.26 1.05-.53 1.55-.33.67-.75 1.35-1.08 2.06a60 60 0 0 1-1.7 3.18c-.72 1.25-1.62 2.33-2.41 3.51a14 14 0 0 1-2.23 2.61q-.22.21-.5.38l-.24.15c-.12.1-.31.18-.44.26q-.1.02-.19.08c-.07.04-.1.1-.19.14q-.3.18-.57.42l-.27.2c-.1.07-.16.18-.26.25-.12.08-.25.1-.36.2-.1.06-.15.14-.25.2q-.35.2-.73.36-.17.08-.37.14-.14.07-.32.12c-.23.06-.45.08-.7.16-.27.08-.46.26-.7.42-.25.15-.58.19-.86.2-.3 0-.65.14-.94.25q-.14.05-.3.06c-.13.02-.2.06-.32.07-.29 0-.5.22-.8.2l-.28-.01-.28-.02a1 1 0 0 0-.41 0q-.68.07-1.35.23c-.25.06-.47.2-.73.28l-.33.06q-.22.1-.43.23-.38.14-.76.23c-.32.1-.62.27-.95.29-.25.02-.51-.04-.77-.01q-.8.12-1.57.4-.3.12-.63.2c-.24.06-.45.05-.68.07l-.36.08c-.13.02-.28-.01-.42 0-.19 0-.38.05-.56.07q-.37.05-.7.14c-.15.04-.32.1-.47.1-.14.01-.12-.18-.13-.28l-.03-.2q-.02-.1.02-.18l.06-.04.31-.31q.16-.14.36-.24.07-.05.13-.12.11-.08.24-.14c.23-.15.45-.35.7-.45s.44-.32.66-.47c.29-.2.52-.45.83-.63q.15-.1.32-.17c.15-.06.27-.19.43-.26q.19-.07.35-.21.14-.17.32-.32l.33-.26q.23-.17.4-.4a21 21 0 0 1 1.68-1.63l.56-.47c.33-.33.59-.7.88-1.04q.12-.16.28-.28c.11-.08.24-.13.34-.24l.17-.18.2-.2q.17-.16.33-.34l.41-.4c.08-.06.1-.13.17-.2.22-.24.44-.32.56-.63.08-.2.26-.33.38-.5s.25-.3.37-.47q.13-.22.3-.43c.16-.21.27-.45.43-.67.22-.29.5-.51.73-.8l.26-.34c.1-.16.26-.3.4-.45.13-.13.23-.22.33-.38q.16-.27.36-.53c.07-.08.13-.2.2-.27l.13-.17.2-.39q.12-.15.23-.34.06-.07.11-.19.1-.24.26-.47c.1-.16.24-.27.35-.42l.13-.3.16-.26q.16-.22.27-.46l.14-.26c.07-.13.03-.26.1-.39q.15-.27.28-.57.11-.3.28-.56l.11-.23q.06-.15.16-.26.07-.08.1-.17l.06-.15c.09-.24.1-.48.2-.72l.11-.29q.07-.18.12-.37l.04-.23.07-.3q0-.09.04-.18v-.29q0-.12.04-.25l.2-.67a9 9 0 0 0 .31-2.03c0-.3-.05-.65 0-.96.03-.36.2-.49.29-.8.04-.09.04-.23.05-.32q0-.23.03-.45l-.02-.17c-.01-.04-.06-.14-.03-.18-.04.05-.22.02-.27.02h-1.18l-.44-.03q-.29.02-.58 0l-.57-.06-.78.03h-.14l-.35-.03h-.92c-.09 0-.1-.01-.12.07v.24c0 .13.03.29 0 .41 0 .08-.08.12-.1.2l.01.22-.05.19v.22l-.1.34v.17l-.1.24v.19q.01.1-.03.2-.02.08 0 .2l-.06.29-.1.36.01.2-.06.31c-.02.13-.08.22-.09.36q0 .13-.03.26l-.11.4c-.04.17-.12.36-.14.53q-.03.2-.09.4l-.1.4q-.09.35-.2.68-.05.22-.14.43t-.26.4c-.3.38-.4.84-.68 1.24q-.26.4-.5.81c-.08.14-.22.32-.25.49-.02.1 0 .15-.05.24l-.2.32q-.28.4-.5.81-.13.25-.23.52c-.07.17-.15.28-.27.42l-.48.58a3 3 0 0 1-.65.6l-.35.28c-.2.15-.32.33-.48.54q-.54.7-1.1 1.37l-.62.71-.74.8c-.38.37-.7.8-1.1 1.18l-.34.38q-.12.12-.25.2c-.1.08-.15.18-.25.26q-.2.14-.38.3-.2.21-.42.41c-.34.3-.6.61-.86.98-.2.26-.4.41-.66.6-.23.18-.43.47-.73.5a1 1 0 0 0-.46.14c-.36.2-.7.42-1.1.54-.38.13-.83.06-1.22.08-.18 0-.32.01-.33-.2q-.01-.12-.04-.2-.04-.27-.02-.54v-1.57c0-.19.06-.35.07-.52v-.65c0-.57-.03-1.16.01-1.72q.05-.53.05-1.04c0-.24-.05-.49-.06-.73 0-.2-.06-.4-.07-.6v-3.59c0-.46.02-.9-.05-1.34-.03-.23 0-.45 0-.68-.02-.25-.08-.47-.07-.73v-3.1c-.01-.2-.07-.37-.07-.57q.03-.73.01-1.45c-.01-.2-.07-.37-.07-.57v-1c-.03-.18-.06-.31-.06-.48v-.52l-.07-.35v-2.09c0-.37.06-.81 0-1.17l-.06-.54v-.23c-.02-.06-.1-.11-.15-.15q-.12-.1-.22-.22-.02-.04-.06-.06l-.1.01-.3.07c-.17.03-.3.13-.48.13h-1.12c-.26 0-.48.07-.73.12-.45.1-.87.19-1.32.07q-.29-.07-.57-.06c-.2 0-.31.06-.5.06h-.65c-.15 0-.53-.07-.64.07 0 .14-.18.18-.19.3-.04.39.02.76.05 1.14.11 1.1.14 2.2.29 3.3.13 1.02.22 2.07.4 3.1q.27 1.44.49 2.9c.28 1.9.27 3.81.53 5.7.12.9.22 1.78.22 2.67v2.59c0 .56-.12 1.1-.13 1.65 0 .5-.02 1 .04 1.5q.04.52.03 1.06-.01.1.01.2c.02.08.1.1.04.2-.13-.23-.43-.26-.63-.38-.17-.11-.33-.3-.5-.43-.2-.17-.37-.36-.59-.51-.19-.13-.42-.2-.62-.33l-.63-.38q-.75-.41-1.42-.92c-.28-.19-.59-.34-.85-.56l-.92-.74q-.4-.35-.77-.72c-.42-.37-.9-.67-1.3-1.07l-1.69-1.77a18 18 0 0 1-1-1.15c-.38-.46-.7-.97-1.1-1.4a9 9 0 0 1-1.75-2.53c-.23-.48-.44-.92-.6-1.42-.14-.44-.41-.87-.62-1.3-.15-.3-.2-.63-.34-.95-.16-.42-.22-.83-.3-1.27a9 9 0 0 0-.27-1.2c-.1-.35-.3-.65-.37-1q-.23-1.16-.42-2.36a6 6 0 0 0-.37-1.63l-.19-.3c-.04-.1 0-.23-.12-.27-.05-.03-.24-.01-.31 0-.15.01-.28.1-.43.12l-.48.07c-.41.06-.81.23-1.2.34l-.51.11-.32.07c-.13.01-.27-.03-.41 0q-.55.07-1.08.2l-.63.13q-.2.08-.44.12c-.04.15.04.26.05.4l.19.67q.16.76.46 1.5.07.22.1.46l.14.35q.09.33.16.69c.13.54.4 1.05.5 1.6.1.52.32 1.02.46 1.53.1.41.27.84.41 1.23.33.9.7 1.78.93 2.7q.17.63.3 1.25.21.9.57 1.74c.13.33.36.62.56.92l.6.97c.29.38.52.77.83 1.13.32.41.8.72 1.04 1.2.07.14.11.3.2.45.27.47.84.66 1.2 1.05l.55.57.52.6c.17.22.33.48.54.68.19.2.44.35.66.51l.69.48.56.48q.32.24.66.45.69.53 1.4 1.02c.24.16.48.28.72.45q.38.29.79.49c.26.13.45.32.67.52q.4.33.83.63l.67.46c.19.13.3.3.48.44q.13.12.3.21.09.05.19.07.17.13.33.3c-.11-.1-.11.1-.11.15 0 .24.11.52-.21.5-.26-.02-.53-.16-.76-.25q-.43-.16-.87-.25c-.31-.08-.62-.06-.93-.12s-.62-.2-.94-.25a3 3 0 0 1-.91-.25c-.53-.23-1.13-.3-1.65-.56-.43-.21-.84-.47-1.25-.7-.43-.24-.89-.38-1.31-.6a3 3 0 0 0-.99-.3c-.94-.1-1.71-.76-2.62-.99a4 4 0 0 1-1.26-.5c-.39-.24-.76-.36-1.2-.51l-1.2-.38a7 7 0 0 1-1.41-.66c-.4-.24-.83-.43-1.24-.66q-.35-.18-.66-.41-.17-.17-.38-.33c-.18-.14-.38-.23-.56-.37q-.28-.21-.55-.45c-.43-.32-.77-.7-1.12-1.1-.33-.37-.74-.66-1.15-.96-.3-.21-.69-.46-.9-.76q-.32-.49-.58-1.02c-.18-.36-.35-.76-.58-1.1-.25-.4-.52-.84-.72-1.27-.2-.46-.35-.94-.6-1.37-.22-.39-.31-.8-.47-1.19q-.29-.68-.5-1.38c-.11-.33-.18-.7-.33-1.02l-.14-.45-.16-.28-.17-.42q-.14-.23-.25-.46l-.36-.76a12 12 0 0 1-.9-2.48c-.02-.09 0-.13-.05-.21l-.08-.12q-.04-.15-.1-.28c-.08-.15-.23-.35-.41-.38q-.18 0-.31.1c-.1.07-.2.08-.31.12l-.4.1-.44.13-.18.09-.16.04-.17.05-.1.01-.24.06c-.25.09-.49.22-.74.27-.42.1-.82.34-1.23.49q-.16.07-.3.19l-.26.16-.18.1-.06.04h-.04q-.02 0-.05.03l-.34.17c-.09.05-.27.1-.28.22l.02.08zm-6.49 93.55c-.28.7-.48 1.48-.84 2.13q-.9 1.66-1.7 3.38-.21.45-.46.9c-.13.24-.21.62-.4.81-.13.13-.34.12-.5.15-.26.06-.5.18-.74.24-.2.05-.44-.03-.64 0-.25.03-.44.08-.7.08h-.6c-.13 0-.19-.03-.31-.06-.13-.04-.26 0-.39-.04a.1.1 0 0 0-.1-.07l-.16.01-.31-.08c-.1-.01-.26.03-.35-.02-.3-.15.1-.77.18-.91q.2-.36.43-.71c.13-.2.2-.4.32-.59l.67-.85c.11-.14.18-.33.3-.47q.24-.27.41-.59c.35-.55.75-1.1 1.2-1.57.4-.43.77-.9 1.27-1.23.36-.23.74-.4 1.07-.67q.15-.13.34-.21.09-.04.17-.05h.18l.1-.05.11-.04h.12l.2-.06.26-.06c.08-.02.17 0 .25-.03l.18-.04.13-.06.08-.03.2-.02q.07-.01.14 0c.1.02.1.12.1.2-.03.22-.13.42-.2.61m12.66-.52c-.15 1.26-.57 2.52-.9 3.75q-.17.66-.28 1.33c-.08.4-.23.81-.27 1.22-.03.24.06.47-.06.7-.18.32-.54.32-.86.42-.18.06-.29.14-.5.15h-.33c-.25 0-.46.07-.7.08-.18.01-.37-.02-.55 0-.29 0-.54.15-.83.16-.24 0-.44.06-.68.08-.2.02-.38.08-.6.08-.24 0-.42.07-.64.08q-.53.02-1.05 0c-.17 0-.4.03-.56-.02-.14-.04-.29-.17-.42-.2-.3-.1-.83-.13-1.01-.43q-.1-.17-.03-.37a6 6 0 0 1 1.08-1.93c.2-.25.47-.47.68-.7.43-.52.67-1.13 1.08-1.65.55-.71.92-1.49 1.38-2.25.31-.5.73-1.12 1.15-1.53.53-.5 1.05-1.28 1.8-1.48a4 4 0 0 1 1.9.03c.36.1.98.15 1.14.57.08.24.02.66.03.91.02.34.07.67.03 1m8.85 7.24h-.43l-.13.02-.2-.01h-1.32c-.13-.01-.2-.07-.33-.09-.1-.02-.22.03-.32 0-.12-.02-.14-.07-.28-.08h-.32a4 4 0 0 0-.72-.08h-.32c-.23 0-.72-.05-.72-.34 0-.14.1-.3.14-.43l.8-2.07c.45-1.24 1.05-2.43 1.5-3.67.1-.26.13-.59.5-.54.15.04.33.23.44.35.21.21.28.43.36.73.07.28.03.54.07.83.04.35.19.71.27 1.06l.26 1.13a39 39 0 0 0 .69 2.5q.02.12.06.2l.09.09.05.07q.02.04.05.06.05.08.04.18c-.01.12-.15.09-.23.09m116.02-23.54c-.22-.64-.49-1.25-.64-1.9a13 13 0 0 0-.4-1.52c-.11-.27-.12-.46-.14-.74-.03-.4-.22-.72-.32-1.1-.14-.6-.24-1.17-.4-1.73 0-.04-.08-.1-.1-.16-.03-.13.03-.28 0-.41-.02-.25-.18-.4-.12-.68.04-.39.28-.68.5-1.04.33-.52.51-1.13.88-1.65.97-1.38 1.47-2.99 2.26-4.49.41-.79.7-1.63 1.18-2.4.14-.2.22-.43.33-.66.23-.48.5-.85.78-1.3.35-.56.5-1.23.88-1.78.09-.12.13-.2.27-.26l.1-.04.13-.01c.18-.05.38-.14.57-.09q.14.06.29.08l.32.05q.61.17 1.19.43l.3.13.12.05h.1l.06.03.18.13q.16.14.37.24l.16.1.3.16.13.09.12.08.08.06.02.06.03.03.02.06q0 .05.03.08l.02.03v.05q.02.03.02.07t.03.08l.03.08.03.07v.04l.02.04.02.09v.1l.03.07v.18q.03.09.02.19v.12l.01.12v.2l.02.04v.15q0 .06.02.1.03.09.03.18a5 5 0 0 0 .1.75c.12.65.03 1.3.14 1.95q.26 1.66.47 3.32c.13.9.08 1.78.2 2.66.1.7.04 1.43.04 2.13 0 .84.11 1.64.14 2.46.04.94-.01 1.9-.01 2.84v4.38c0 .73-.04 1.47-.01 2.19.02.3.11.53.15.81.05.35 0 .73 0 1.08v1.4q.02.51 0 1c0 .32-.13.6-.15.9-.04.65-.06 1.4.04 2.05.11.68.1 1.35.1 2.05 0 1.6 0 3.17-.13 4.76-.05.72-.13 1.41-.13 2.13v.76c-.01.41.12.75.14 1.15q.03.5.12 1l.02.18q-.01.15-.08.28c-.1.18-.28.5-.46.6s-.45.06-.63.08l-.63.05c-.17.01-.37.05-.54 0h-.17c-.1-.02-.18-.1-.26-.14l-.11-.1-.11-.1q-.03 0-.05-.03l-.08-.07-.08-.04q-.07-.02-.1-.07l-.02-.1-.08-.27-.2-.54-.46-1.1c-.33-.96-.75-1.9-1.01-2.88-.3-1.1-.77-2.15-1.05-3.26-.08-.32-.24-.6-.34-.91-.1-.33-.15-.64-.3-.95-.26-.53-.4-1.11-.68-1.65-.5-1.02-.69-2.27-.97-3.38-.28-1.12-.7-2.18-.92-3.32-.2-1-.59-1.98-.84-2.98-.25-1.02-.62-1.98-.94-2.97m-89.78 32.56q.24.05.5.07c.24 0 .47-.1.71-.1.39 0 .78-.04 1.16.01.22.03.43.12.65.15.13.03.24.01.36.05.38.1.79.08 1.17.17.07.01.12.07.2.09.1.03.21-.01.33.02.1.02.16.07.28.07.12.01.25-.02.37 0l.34.1q.23 0 .46.04c.28.06.58 0 .85.06.2.04.34.08.56.08.28 0 .57-.03.85.02.44.08.89.2 1.34.25.25.03.44.1.67.1.29.02.55.09.84.1.2 0 .46.07.67.12.4.09.7.26 1.14.26.14 0 .2.05.3.07q.17.02.35.02c.11 0 .17.05.27.08.16.04.32 0 .48.04.45.08.91.2 1.37.25.71.07 1.39.29 2.11.38.82.1 1.65.28 2.48.37q1.04.09 2.07.25c.27.04.56.01.8.09.3.09.62.22.93.24.36.02.68 0 1.04.09l1.8.37 1.43.31c.3.06.61.17.91.16.23 0 .34.1.56.1h2.22c1.75 0 3.5-.05 5.26 0q2 .09 4 .09c.28 0 .56-.08.84-.13.25-.05.52-.04.78-.11.35-.1.6-.33.98-.32 1.25.02 2.5.25 3.75.25q.74 0 1.46-.04c.09 0 .2-.04.3.01.15.1.23.42.25.67q.03.14.02.23c.02.93-.51 1.27-1.08 1.6q-1 .6-2.03 1.1c-.61.3-1.16.78-1.78 1.06s-1.23.56-1.81.93c-.45.28-.9.45-1.37.7-.25.14-.47.35-.74.5-.31.17-.7.2-1.01.33-.34.12-.62.32-.94.49-1.18.64-2.48.9-3.68 1.44a24 24 0 0 1-4.37 1.44c-.5.13-1 .13-1.5.08-2.9-.33-5.57-1.83-8.37-2.7-1.1-.33-2.06-.86-3.13-1.3-.8-.3-1.48-.4-2.24-.85-1.28-.76-2.66-1.13-3.95-1.9a71 71 0 0 0-3.85-2.1c-1.05-.51-2.1-1-3.1-1.65q-1.38-.88-2.85-1.51c-.47-.2-.95-.33-1.43-.49-.44-.14-1.08-.23-1.44-.58-.45-.42-.34-1.82.46-1.72"/></svg>